<svg
  xmlns="http://www.w3.org/2000/svg"
  width="16.285"
  height="20"
  viewBox="0 0 16.285 20"
>
  <path
    id="Icon_metro-apple"
    data-name="Icon metro-apple"
    d="M19.037,12.555A4.525,4.525,0,0,1,21.2,8.747a4.671,4.671,0,0,0-3.657-1.982c-1.557-.158-3.039.917-3.829.917s-2.008-.894-3.3-.87A4.893,4.893,0,0,0,6.273,9.319C4.509,12.38,5.821,16.914,7.54,19.4c.84,1.215,1.842,2.58,3.157,2.531,1.266-.051,1.745-.819,3.276-.819s1.961.819,3.3.794c1.363-.025,2.226-1.238,3.06-2.457A11.024,11.024,0,0,0,21.721,16.6a4.417,4.417,0,0,1-2.684-4.046ZM16.519,5.122a4.408,4.408,0,0,0,1.041-3.194,4.484,4.484,0,0,0-2.946,1.515,4.193,4.193,0,0,0-1.062,3.094A3.709,3.709,0,0,0,16.519,5.122Z"
    transform="translate(-5.436 -1.928)"
  />
</svg>
