<svg id="Group_26887" data-name="Group 26887" xmlns="http://www.w3.org/2000/svg" xmlns:xlink="http://www.w3.org/1999/xlink" width="118" height="70" viewBox="0 0 118 70">
  <defs>
    <clipPath id="clip-path">
      <rect id="Rectangle_4400" data-name="Rectangle 4400" width="118" height="70" fill="#fff"/>
    </clipPath>
  </defs>
  <g id="Group_26886" data-name="Group 26886" transform="translate(0 0)" clip-path="url(#clip-path)">
    <path id="Path_28904" data-name="Path 28904" d="M100.426,4.269V14.628H0V4.269A4.277,4.277,0,0,1,4.288,0H96.147a4.274,4.274,0,0,1,4.278,4.269" transform="translate(0 0)" fill="#fff"/>
    <path id="Path_28905" data-name="Path 28905" d="M0,22.63v43.1a4.274,4.274,0,0,0,4.288,4.259H81.827a25.324,25.324,0,0,1-7.01-17.507,25.585,25.585,0,0,1,25.609-25.476V22.63ZM13.326,63.324a6.964,6.964,0,1,1,7-6.959,6.973,6.973,0,0,1-7,6.959" transform="translate(0 -0.003)" fill="#fff"/>
    <path id="Path_28906" data-name="Path 28906" d="M100.085,35.01h-.01a17.486,17.486,0,0,0-2.892,34.745,16.1,16.1,0,0,0,2.882.25,17.536,17.536,0,0,0,17.585-17.488v-.01a17.528,17.528,0,0,0-17.564-17.5M108.872,54.7h-8.8a2.194,2.194,0,0,1-2.189-2.17v-8.8a2.183,2.183,0,0,1,2.189-2.18h.01a2.183,2.183,0,0,1,2.189,2.18v6.579h6.6a2.195,2.195,0,1,1,0,4.389" transform="translate(0.351 -0.005)" fill="#fff"/>
  </g>
</svg>
