<svg xmlns="http://www.w3.org/2000/svg" xmlns:xlink="http://www.w3.org/1999/xlink" width="70" height="70.004" viewBox="0 0 70 70.004">
  <defs>
    <clipPath id="clip-path">
      <rect id="Rectangle_4396" data-name="Rectangle 4396" width="70" height="70.004" fill="none"/>
    </clipPath>
  </defs>
  <g id="Icon" transform="translate(0 0)">
    <g id="Group_26869" data-name="Group 26869" transform="translate(0 0)" clip-path="url(#clip-path)">
      <path id="Path_28900" data-name="Path 28900" d="M49.27,26.7,50.6,15.854a14.106,14.106,0,1,0-27.994,0l1.785,14.488H40.067Z" transform="translate(-1.611 0)" fill="#bebebe"/>
      <path id="Path_28901" data-name="Path 28901" d="M30.853,42.108A24.591,24.591,0,0,0,27.528,51H12.062a12.961,12.961,0,0,1,12.317-8.889Z" transform="translate(-0.864 -3.016)" fill="#bebebe"/>
      <path id="Path_28902" data-name="Path 28902" d="M33,74.319H4.549A4.57,4.57,0,0,1,0,69.735v-4.76A4.571,4.571,0,0,1,4.549,60.39H26.524A25.621,25.621,0,0,0,33,74.319" transform="translate(0 -4.326)" fill="#bebebe"/>
      <g id="Icons" transform="translate(9902 6566)">
        <path id="Success_Icon" data-name="Success Icon" d="M17.5,0A17.5,17.5,0,1,0,35,17.5,17.506,17.506,0,0,0,17.5,0m8.523,14.28L16.485,23.8a2.134,2.134,0,0,1-3.027.052L13.4,23.8,8.96,19.372a2.2,2.2,0,0,1,0-3.08,2.242,2.242,0,0,1,1.558-.63,2.182,2.182,0,0,1,1.558.63l2.87,2.87,7.98-7.962a2.184,2.184,0,1,1,3.1,3.08" transform="translate(-9867 -6531)" fill="#02a574" fill-rule="evenodd"/>
      </g>
    </g>
  </g>
</svg>
