<svg id="Pending_Icon" data-name="Pending Icon" xmlns="http://www.w3.org/2000/svg" width="50" height="49.992" viewBox="0 0 50 49.992">
  <path id="Pending_Icon-2" data-name="Pending Icon" d="M63.519,35.01h-.014a24.987,24.987,0,0,0-4.114,49.636,22.8,22.8,0,0,0,4.1.357A25,25,0,0,0,88.5,60.021v-.014a24.986,24.986,0,0,0-24.986-25m12.5,28.125H63.505a3.128,3.128,0,0,1-3.114-3.1V47.465a3.112,3.112,0,0,1,3.114-3.114h.014a3.112,3.112,0,0,1,3.114,3.114v9.4h9.386a3.135,3.135,0,0,1,0,6.271" transform="translate(-38.505 -35.01)" fill="#bebebe"/>
</svg>
