<svg xmlns="http://www.w3.org/2000/svg" xmlns:xlink="http://www.w3.org/1999/xlink" width="70" height="70.004" viewBox="0 0 70 70.004">
  <defs>
    <clipPath id="clip-path">
      <rect id="Rectangle_4396" data-name="Rectangle 4396" width="70" height="70.004" fill="#fff"/>
    </clipPath>
  </defs>
  <g id="Icon" transform="translate(0 0)">
    <g id="Group_26869" data-name="Group 26869" transform="translate(0 0)" clip-path="url(#clip-path)">
      <path id="Path_28900" data-name="Path 28900" d="M49.27,26.7,50.6,15.854a14.106,14.106,0,1,0-27.994,0l1.785,14.488H40.067Z" transform="translate(-1.611 0)" fill="#fff"/>
      <path id="Path_28901" data-name="Path 28901" d="M30.853,42.108A24.591,24.591,0,0,0,27.528,51H12.062a12.961,12.961,0,0,1,12.317-8.889Z" transform="translate(-0.864 -3.016)" fill="#fff"/>
      <path id="Path_28902" data-name="Path 28902" d="M33,74.319H4.549A4.57,4.57,0,0,1,0,69.735v-4.76A4.571,4.571,0,0,1,4.549,60.39H26.524A25.621,25.621,0,0,0,33,74.319" transform="translate(0 -4.326)" fill="#fff"/>
      <path id="Path_28903" data-name="Path 28903" d="M55.212,37.706a17.5,17.5,0,1,0,17.49,17.5,17.5,17.5,0,0,0-17.49-17.5M63.957,57.4H55.212a2.191,2.191,0,0,1-2.191-2.172V46.433a2.186,2.186,0,0,1,4.373,0v6.582h6.563a2.191,2.191,0,0,1,0,4.382" transform="translate(-2.702 -2.701)" fill="#fff"/>
    </g>
  </g>
</svg>
