<svg xmlns="http://www.w3.org/2000/svg" width="95.855" height="20" viewBox="0 0 95.855 20">
  <g id="Credit_card_icon" data-name="Credit card icon" transform="translate(-299.445 -636.4)">
    <g id="visa" transform="translate(299.445 636.4)">
      <path id="XMLID_4_" d="M672.6,656.4H650.155a2.6,2.6,0,0,1-2.555-2.632V639.032a2.6,2.6,0,0,1,2.555-2.632h22.454a2.6,2.6,0,0,1,2.555,2.632v14.727A2.605,2.605,0,0,1,672.6,656.4Z" transform="translate(-647.6 -636.4)" fill="#0066b2"/>
      <g id="XMLID_7_" transform="translate(4.973 7.44)">
        <g id="XMLID_9_" transform="translate(0.009)">
          <path id="XMLID_19_" d="M779.835,726.611H778.4l.9-5.511h1.435Z" transform="translate(-772.205 -720.997)" fill="#fff"/>
          <path id="XMLID_18_" d="M710.89,721.1l-1.367,3.794-.162-.82h0l-.487-2.478a.617.617,0,0,0-.684-.5h-2.264l-.026.094a5.413,5.413,0,0,1,1.5.632l1.247,4.793h1.5l2.281-5.511H710.89Z" transform="translate(-705.9 -720.997)" fill="#fff"/>
          <path id="XMLID_11_" d="M855.794,726.611h1.316l-1.145-5.511h-1.153a.672.672,0,0,0-.667.41l-2.145,5.1h1.5l.3-.82h1.828Zm-1.581-1.948.752-2.059.427,2.059Z" transform="translate(-839.517 -720.997)" fill="#fff"/>
          <path id="XMLID_10_" d="M809.684,721.327l.205-1.188a4.16,4.16,0,0,0-1.29-.239c-.709,0-2.4.308-2.4,1.828,0,1.427,1.982,1.444,1.982,2.187s-1.777.615-2.367.145L805.6,725.3a4.07,4.07,0,0,0,1.623.308c.983,0,2.461-.5,2.461-1.888,0-1.435-2-1.564-2-2.187C807.668,720.908,809.069,720.985,809.684,721.327Z" transform="translate(-797.081 -719.9)" fill="#fff"/>
        </g>
        <path id="XMLID_8_" d="M709.26,724.073l-.487-2.478a.617.617,0,0,0-.684-.5h-2.264l-.026.094a5.511,5.511,0,0,1,2.128,1.068A4.242,4.242,0,0,1,709.26,724.073Z" transform="translate(-705.8 -720.997)" fill="#f9a533"/>
      </g>
    </g>
    <g id="mastercard" transform="translate(333.591 636.4)">
      <path id="XMLID_5_" d="M1054.909,656.4h-22.454a2.6,2.6,0,0,1-2.555-2.632V639.032a2.6,2.6,0,0,1,2.555-2.632h22.454a2.6,2.6,0,0,1,2.555,2.632v14.727A2.6,2.6,0,0,1,1054.909,656.4Z" transform="translate(-1029.9 -636.4)" fill="#36495d"/>
      <g id="XMLID_3_" transform="translate(5.221 4.711)">
        <rect id="XMLID_41_" width="4.631" height="8.322" transform="translate(6.246 1.128)" fill="#f16522"/>
        <path id="XMLID_40_" d="M1097.536,693.389a5.291,5.291,0,0,1,2.025-4.161,5.289,5.289,0,1,0,0,8.322,5.291,5.291,0,0,1-2.025-4.161" transform="translate(-1091 -688.1)" fill="#e41b24"/>
        <path id="XMLID_20_" d="M1199.761,693.389a5.295,5.295,0,0,1-8.561,4.161,5.3,5.3,0,0,0,0-8.322,5.295,5.295,0,0,1,8.561,4.161m-.5,3.281V696.5h.068v-.034h-.171v.034h.068v.171Zm.342,0v-.205h-.051l-.06.145-.06-.145h-.051v.205h.034v-.154l.06.137h.043l.06-.137v.154Z" transform="translate(-1182.639 -688.1)" fill="#f89e1c"/>
      </g>
    </g>
    <g id="Amex" transform="translate(367.736 636.4)">
      <path id="XMLID_6_" d="M1437.209,656.4h-22.454a2.6,2.6,0,0,1-2.555-2.632V639.032a2.6,2.6,0,0,1,2.555-2.632h22.454a2.6,2.6,0,0,1,2.555,2.632v14.727A2.6,2.6,0,0,1,1437.209,656.4Z" transform="translate(-1412.2 -636.4)" fill="#006fcf"/>
      <g id="XMLID_63_" transform="translate(1.35 5.478)">
        <g id="XMLID_64_" transform="translate(0 0)">
          <path id="XMLID_90_" d="M1449.822,684.34h1.871V680H1449.7v.692l-.445-.692h-1.734v.88l-.393-.88h-2.871a2.062,2.062,0,0,0-.4.034,2.088,2.088,0,0,0-.564.171,1.254,1.254,0,0,0-.256.145V680h-9.382l-.256.76-.256-.76h-2.179v.889l-.393-.889h-1.777l-.795,1.863v2.486h1.265l.231-.624h.444l.239.624h9.7v-.632l.487.632h2.683v-.316c.069.043.146.085.214.12a2.369,2.369,0,0,0,.222.085,1.7,1.7,0,0,0,.282.068,2.794,2.794,0,0,0,.453.043h1.606l.231-.624h.444l.239.624h2.692V683.7Zm3.05,5.579v-4.076h-15.431l-.393.555-.393-.555h-4.443v4.349h4.426l.385-.564.4.564h2.769v-.94h-.026a2.66,2.66,0,0,0,.931-.162v1.1h1.931v-.632l.487.632h8.374a2.056,2.056,0,0,0,.667-.111C1452.667,690.031,1452.77,689.98,1452.872,689.92Z" transform="translate(-1428 -680)" fill="#f7f7f7"/>
          <g id="XMLID_77_" transform="translate(4.887 6.547)">
            <path id="XMLID_78_" d="M1493.911,744.75h-1.5v.59h1.487a.91.91,0,0,0,1.008-.931.8.8,0,0,0-.906-.829h-.675a.265.265,0,0,1-.282-.282.272.272,0,0,1,.282-.291h1.273l.256-.6h-1.512a.907.907,0,0,0-1.008.914.82.82,0,0,0,.914.854h.675a.271.271,0,0,1,.291.282A.29.29,0,0,1,1493.911,744.75Zm-2.794,0h-1.5v.59h1.487a.91.91,0,0,0,1.008-.931.8.8,0,0,0-.906-.829h-.675a.265.265,0,0,1-.282-.282.271.271,0,0,1,.282-.291h1.273l.256-.6h-1.512a.907.907,0,0,0-1.008.914.82.82,0,0,0,.914.854h.675a.271.271,0,0,1,.291.282A.29.29,0,0,1,1491.117,744.75ZM1489.186,743v-.6h-2.35v2.931h2.35v-.59h-1.641v-.59h1.606v-.59h-1.606v-.572h1.641Zm-3.922,0a.354.354,0,0,1,.385.367.348.348,0,0,1-.385.359h-.829V743Zm-.829,1.282h.333l.872,1.059h.872l-.974-1.077a.912.912,0,0,0,.795-.923.922.922,0,0,0-1.017-.931h-1.589v2.931h.7V744.28Zm-1.794-.9a.345.345,0,0,1-.376.359h-.846v-.718h.846A.341.341,0,0,1,1482.641,743.383Zm-1.914-.983v2.931h.7v-.966h.88a.963.963,0,0,0,1.042-.983.942.942,0,0,0-1.017-.983Zm-1.034,2.931h.88l-1.179-1.478,1.17-1.453h-.854l-.718.931-.718-.931h-.889l1.171,1.47-1.171,1.47h.854l.718-.94ZM1477.25,743v-.6h-2.35v2.931h2.35v-.59h-1.641v-.59h1.606v-.59h-1.606v-.572h1.641Z" transform="translate(-1474.9 -742.4)" fill="#006fcf"/>
          </g>
          <path id="XMLID_65_" d="M1448.848,689.379l-.009-.239.145.239,1.119,1.752h.82V688.2h-.683v1.7l.008.214-.128-.214-1.094-1.7h-.863v2.931h.684Zm-2.811-.085.214-.547.214.547.256.649h-.94Zm1.162,1.846h.795l-1.256-2.931h-.923l-1.256,2.931h.752l.248-.632h1.393Zm-3.068,0h.034l.29-.624h-.214a.729.729,0,0,1-.769-.82v-.043a.732.732,0,0,1,.76-.812h.76v-.632h-.82a1.325,1.325,0,0,0-1.4,1.444v.051A1.313,1.313,0,0,0,1444.132,691.139Zm-2.5,0h.7v-2.931h-.7v2.931Zm-1.478-2.333a.354.354,0,0,1,.385.367.348.348,0,0,1-.385.359h-.829v-.726Zm-.82,1.273h.333l.872,1.06h.871l-.974-1.077a.912.912,0,0,0,.795-.923.922.922,0,0,0-1.017-.931h-1.589v2.931h.7v-1.06Zm-1.222-1.282v-.6h-2.35v2.931h2.35v-.6h-1.641v-.581h1.606v-.59h-1.606v-.572h1.641Zm-5.836.333-.017-.795.812,2.794h.641l.812-2.777-.017.769v2.008h.683V688.2h-1.239l-.555,2.076-.564-2.076h-1.239v2.931h.683Zm-2.8.162.214-.547.214.547.256.649h-.94Zm1.171,1.846h.795l-1.256-2.931h-.923L1428,691.139h.752l.248-.632h1.393Z" transform="translate(-1428 -687.499)" fill="#006fcf"/>
        </g>
      </g>
    </g>
  </g>
</svg>
