<svg
  xmlns="http://www.w3.org/2000/svg"
  width="238.5"
  height="90"
  viewBox="0 0 238.5 90"
>
  <g id="Group_26408" data-name="Group 26408" transform="translate(0)">
    <path
      id="Path_28856"
      data-name="Path 28856"
      d="M-796.667,242.84V239c0-.512-.128-.9-.769-1.024h-.578a.125.125,0,0,1-.128-.128c0-.128,0-.128.321-.128h4.1a5.889,5.889,0,0,1,3.271.768,3.026,3.026,0,0,1,1.218,2.43,5.4,5.4,0,0,1-2.116,4.094c1.475,1.919,2.693,3.518,3.719,4.605a3.812,3.812,0,0,0,2.116,1.279h.706s.193,0,.193.128-.129.128-.449.128h-1.283a3.416,3.416,0,0,1-1.924-.32,8.437,8.437,0,0,1-2.373-2.623c-.77-1.024-1.6-2.111-1.988-2.623a.333.333,0,0,0-.256-.128H-795c-.128,0-.128,0-.128.128v4.35c0,.767.193.9.706.959h.77c.128,0,.128,0,.128.128s0,.128-.32.128h-3.784c-.192,0-.321,0-.256-.128,0-.128,0-.128.128-.128h.513c.385,0,.449-.447.513-.959s0-2.111,0-3.9Zm1.411,1.535a.483.483,0,0,0,.129.255,4.524,4.524,0,0,0,1.86.256,2.02,2.02,0,0,0,1.346-.32,3.434,3.434,0,0,0,1.09-2.75c0-2.111-1.218-3.582-3.078-3.582a3.489,3.489,0,0,0-1.155,0,.334.334,0,0,0-.128.256l-.064,5.885Z"
      transform="translate(837.519 -161.731)"
      fill="#fff"
    />
    <path
      id="Path_28857"
      data-name="Path 28857"
      d="M-852.339,237.121a6.527,6.527,0,0,1,6.99,6.012v.7a7,7,0,0,1-6.67,7.292h-.449a6.7,6.7,0,0,1-6.926-6.4v-.64a6.848,6.848,0,0,1,6.862-6.972h.192m.385,13.368c1.6,0,4.873-.959,4.873-6.14,0-4.222-2.565-6.589-5.386-6.589s-5.195,2.047-5.195,5.885,2.5,6.844,5.708,6.844"
      transform="translate(859.394 -161.513)"
      fill="#fff"
    />
    <path
      id="Path_28858"
      data-name="Path 28858"
      d="M-836.271,242.781v-3.9a.885.885,0,0,0-.769-1.023h-.706s0-.128.321-.128h6.284a1.578,1.578,0,0,0,.77,0h.257v.192c-.064.256-.128.576-.192.831V239.9c0,.192,0,.192-.128.256-.129,0-.129,0-.129-.256a1.456,1.456,0,0,0-.192-.7,1.411,1.411,0,0,0-1.219-.576h-2.757c-.129,0-.192,0-.192.192v4.925c0,.128,0,.128.128.128h3.078c.449,0,.642,0,.834-.32.129-.32.129-.192.193-.192s0,0,0,.128a4.406,4.406,0,0,1-.129,1.023,3.561,3.561,0,0,0,0,1.215c0,.128,0,.32-.129.32s-.128,0-.128-.128a2.268,2.268,0,0,0-.129-.639,1.033,1.033,0,0,0-.9-.64H-834.8c-.257,0-.129,0-.129.192v1.535a26.749,26.749,0,0,0,.129,3.9c0,.512.128.9.705,1.023h.962s0,.128-.257.128h-3.848c-.192,0-.321,0-.321-.128s0,0,.128,0h.513c.384,0,.449-.447.513-1.023.064-.512,0-2.111,0-3.9Z"
      transform="translate(851.663 -161.736)"
      fill="#fff"
    />
    <path
      id="Path_28859"
      data-name="Path 28859"
      d="M-673.041,245.729v3.9c0,.768.192.9.705,1.023h.769c.129,0,.129,0,.129.128s0,.128-.257.128h-3.912c-.192,0-.256,0-.256-.128s0-.128.128-.128h.577c.321,0,.449-.447.513-1.023.064-1.279.064-2.623,0-3.9v-7.612h-2.693c-1.09,0-1.539.128-1.8.576a2.606,2.606,0,0,0-.321.576.2.2,0,0,1-.192.192c-.064,0,0,0,0-.192s.385-1.727.385-1.855c.064-.128,0-.384.192-.384a3.194,3.194,0,0,0,.834.256h8.08a8.585,8.585,0,0,0,1.8-.192v2.175c0,.192,0,.192-.128.192s-.129,0-.129-.32v-.192c0-.512-.449-.96-2.116-1.024h-2.117Z"
      transform="translate(795.209 -161.486)"
      fill="#fff"
    />
    <path
      id="Path_28860"
      data-name="Path 28860"
      d="M-659.7,242.745v-3.9a.885.885,0,0,0-.77-1.023,1.771,1.771,0,0,0-.577-.064h-.129s0-.128.256-.128h7.118v.128a3.043,3.043,0,0,1-.128.832v1.152c0,.192,0,.192-.128.192s-.128,0-.128-.256a1.1,1.1,0,0,0,0-.64c-.129-.255-.321-.512-1.282-.639H-657.9c-.193,0,0,0-.128.192v4.925c0,.128,0,.128.128.192h2.886c.449,0,.705,0,.834-.255s.192-.256.256-.256,0,0,0,.128V245.5c0,.128,0,.32-.128.32s-.128,0-.128-.128a1.092,1.092,0,0,0,0-.639c0-.256-.193-.576-.9-.64s-2.244,0-2.565,0a.138.138,0,0,0-.129.128v4.606c0,1.279.321,1.471,2.116,1.471a4.089,4.089,0,0,0,1.732-.256c.449-.192.705-.512.77-1.279,0-.192.128-.256.192-.256s.128.128.128.256a16.076,16.076,0,0,1-.256,1.727c0,.512-.257.512-.962.512-2.757,0-3.912-.128-4.425-.128h-1.732c-.192,0-.257,0-.257-.128s0-.128.129-.128h.513c.385,0,.449-.448.513-1.023.064-1.279.064-2.623,0-3.9Z"
      transform="translate(788.602 -161.701)"
      fill="#fff"
    />
    <path
      id="Path_28861"
      data-name="Path 28861"
      d="M-646.691,249.275a7.173,7.173,0,0,1-2.116-5.309,7.369,7.369,0,0,1,2.116-4.926,7.437,7.437,0,0,1,5.451-1.919,12.215,12.215,0,0,1,2.63.255,17.239,17.239,0,0,0,1.8.256c.192,0,.257.128.257.192V240.7c0,.256,0,.384-.192.384s-.128-.128-.128-.384a2.784,2.784,0,0,0-.705-1.855,6.026,6.026,0,0,0-3.592-1.023,5.348,5.348,0,0,0-4.1,1.343,6.07,6.07,0,0,0-1.6,4.669,6.425,6.425,0,0,0,6.22,6.589h.193a4.337,4.337,0,0,0,3.142-.9,3.291,3.291,0,0,0,.641-1.535c0-.192,0-.256.193-.256s0,.128,0,.256a16.476,16.476,0,0,1-.514,2.431c-.128.32-.128.32-.449.512a9.013,9.013,0,0,1-3.207.384,8.323,8.323,0,0,1-5.9-1.919"
      transform="translate(784.186 -161.514)"
      fill="#fff"
    />
    <path
      id="Path_28862"
      data-name="Path 28862"
      d="M-616.7,245.944v3.9c0,.768.128.9.77,1.023h.769c.128,0,.128,0,.128.128s0,.128-.321.128h-3.848c-.192,0-.256,0-.256-.128v-.128h.577c.384,0,.449-.447.513-1.023.064-.512,0-2.111,0-3.9v-1.983h-7.439v1.983c-.064,1.279-.064,2.623,0,3.9a.924.924,0,0,0,.705,1.023h.834a.126.126,0,0,1,.128.128c0,.128-.128.128-.321.128h-3.848c-.192,0-.32,0-.32-.128s0-.128.128-.128h.513c.385,0,.449-.447.513-1.023.064-1.279.064-2.623,0-3.9v-7.1a.885.885,0,0,0-.77-1.023h-.705s0-.128.257-.128h3.848c.193,0,.256,0,.321.128s0,0-.128,0h-.449c-.449,0-.641.384-.705,1.023s0,1.088,0,3.9v.384h7.567v-4.286a.885.885,0,0,0-.77-1.023,2.177,2.177,0,0,0-.641-.064h-.129s0-.128.321-.128h3.72c.257,0,.321,0,.321.128s0,0-.128,0H-616c-.513,0-.642.384-.642,1.024v3.9Z"
      transform="translate(777.094 -161.701)"
      fill="#fff"
    />
    <path
      id="Path_28863"
      data-name="Path 28863"
      d="M-604.37,248.516c0,1.471.257,1.919.705,2.111h.9c.128,0,.192,0,.192.128s-.129.128-.321.128h-3.655c-.128,0-.257,0-.257-.128s0-.128.129-.128a1.323,1.323,0,0,0,.705,0c.449-.128.577-.64.577-2.3v-10.3c0-.7,0-.9.192-.9s.449.384.642.576,2.949,3.2,5.643,6.2c1.8,1.855,3.719,4.094,4.232,4.67l-.192-9.147c0-1.151-.129-1.535-.705-1.663a3.422,3.422,0,0,0-.834-.063h3.655c.192,0,.321,0,.321.128s0,0-.193,0h-.449c-.577,0-.641.512-.641,1.6v10.619c0,1.152,0,1.279-.129,1.279s-.385-.192-1.347-1.152c-.192-.192-2.757-2.815-4.617-4.862s-4.1-4.541-4.682-5.117Z"
      transform="translate(769.185 -161.522)"
      fill="#fff"
    />
    <path
      id="Path_28864"
      data-name="Path 28864"
      d="M-578.5,237.121a6.527,6.527,0,0,1,6.99,6.012v.768a7.125,7.125,0,0,1-6.8,7.356h-.321a6.688,6.688,0,0,1-6.926-6.524v-.512a6.944,6.944,0,0,1,6.862-7.036.238.238,0,0,1,.193-.064m.384,13.433c1.6,0,4.938-.96,4.938-6.2,0-4.222-2.63-6.589-5.387-6.589-2.821,0-5.259,1.983-5.259,5.949,0,3.9,2.5,6.844,5.707,6.844"
      transform="translate(761.597 -161.513)"
      fill="#fff"
    />
    <path
      id="Path_28865"
      data-name="Path 28865"
      d="M-561.538,245.944c0,2.623,0,3.774.385,4.094s.77.384,2.116.384c.963,0,1.732,0,2.117-.512a2.32,2.32,0,0,0,.449-1.088c0-.128,0-.192.129-.192s.129,0,.129.256a14.964,14.964,0,0,1-.257,1.791c-.128.384-.192.512-1.154.512-2.565,0-3.784-.128-4.81-.128h-1.731c-.193,0-.321,0-.321-.128s0-.128.192-.128h.513c.385,0,.449-.448.513-1.024s0-2.111,0-3.9v-7.1c0-.576-.128-.9-.769-1.024h-.77s0-.128.321-.128h3.912c.192,0,.257,0,.257.128s0,0-.129,0h-.576c-.513,0-.706.384-.706,1.024-.064.639,0,1.087,0,3.9Z"
      transform="translate(754.186 -161.701)"
      fill="#fff"
    />
    <path
      id="Path_28866"
      data-name="Path 28866"
      d="M-545.121,237.094a6.527,6.527,0,0,1,6.99,6.012v.7a7.03,7.03,0,0,1-6.733,7.357h-.449a6.7,6.7,0,0,1-6.926-6.589v-.512a6.944,6.944,0,0,1,6.862-7.036.484.484,0,0,0,.257.064m.32,13.433c1.6,0,4.938-.96,4.938-6.2,0-4.222-2.566-6.589-5.387-6.589s-5.194,1.983-5.194,5.949c0,3.9,2.437,6.844,5.643,6.844"
      transform="translate(749.697 -161.486)"
      fill="#fff"
    />
    <path
      id="Path_28867"
      data-name="Path 28867"
      d="M-518.844,246.373c0-1.471,0-1.663-.77-1.855h-.641a.138.138,0,0,1-.128-.128s0-.128.256-.128h3.848c.193,0,.256,0,.256.128a.137.137,0,0,1-.128.128h-.449c-.449.128-.577.448-.641,1.087a17.8,17.8,0,0,0,0,1.855v2.047c0,.831,0,.9-.256.96a9.59,9.59,0,0,1-3.784.831,8.963,8.963,0,0,1-5.9-1.919,7.255,7.255,0,0,1-2.116-5.118,6.711,6.711,0,0,1,3.014-5.885,8.722,8.722,0,0,1,4.746-1.151,13.513,13.513,0,0,1,2.758.32c.449.064.962.128,1.411.192a.278.278,0,0,1,.256.128s0,.768-.129,2.558c0,.256,0,.384-.128.384s0,0-.129-.256a2.1,2.1,0,0,0-.385-1.215,5.263,5.263,0,0,0-4.233-1.471,5.007,5.007,0,0,0-5.579,4.478,4.3,4.3,0,0,0,0,1.279,7.163,7.163,0,0,0,1.924,4.989,6.346,6.346,0,0,0,4.682,1.919,4.03,4.03,0,0,0,2.116-.384.559.559,0,0,0,.32-.639Z"
      transform="translate(741.504 -161.554)"
      fill="#fff"
    />
    <path
      id="Path_28868"
      data-name="Path 28868"
      d="M-503.928,246.443a4.123,4.123,0,0,0-.385-1.919c-.128-.32-2.5-4.222-3.143-5.181A6.08,6.08,0,0,0-508.674,238a3.912,3.912,0,0,0-.77-.32h3.656l-.256.192a.351.351,0,0,0-.193.32,1.283,1.283,0,0,0,.193.7c.32.512,2.949,5.117,3.27,5.629.321-.768,2.629-4.67,3.014-5.245a2.15,2.15,0,0,0,.321-.9c0-.256,0-.448-.321-.512s-.256,0-.256-.192.128,0,.321,0h3.206s0,.128-.257.128a2.084,2.084,0,0,0-.833.256,3.422,3.422,0,0,0-.962.959,63.488,63.488,0,0,0-3.4,5.694,4.194,4.194,0,0,0-.257,1.791v3.39c0,.767.192.9.77,1.023h.834c.129,0,.129,0,.129.128s0,.128-.257.128h-3.848c-.192,0-.321,0-.321-.128,0-.064,0-.128.064-.128h.642c.32,0,.449-.448.577-1.023a8.2,8.2,0,0,0,0-1.791Z"
      transform="translate(734.412 -161.689)"
      fill="#fff"
    />
    <path
      id="Path_28869"
      data-name="Path 28869"
      d="M-815.785,249.246A6.5,6.5,0,0,1-817.9,244a6.918,6.918,0,0,1,1.988-4.862,7.29,7.29,0,0,1,5.387-1.919,11.257,11.257,0,0,1,2.565.256,17.464,17.464,0,0,0,1.8.256c.192,0,.257.128.257.192V240.8c0,.256,0,.384-.129.384s-.128-.128-.128-.384a2.556,2.556,0,0,0-.77-1.855,6.362,6.362,0,0,0-3.591-1.023,5.644,5.644,0,0,0-4.1,1.279,6.089,6.089,0,0,0-1.6,4.605,6.37,6.37,0,0,0,6.22,6.524h.129a4.1,4.1,0,0,0,3.078-.9,4.288,4.288,0,0,0,.641-1.471c0-.192,0-.255.192-.255s.128.128.128.255a14.371,14.371,0,0,1-.384,2.3c0,.32-.129.384-.449.512a9.018,9.018,0,0,1-3.207.384,8.324,8.324,0,0,1-5.9-1.919"
      transform="translate(844.581 -161.549)"
      fill="#fff"
    />
    <path
      id="Path_28870"
      data-name="Path 28870"
      d="M-775.219,242.816v-3.838a.919.919,0,0,0-.77-1.023h-.705c0-.128,0-.128.321-.128h7.054v.192a3.719,3.719,0,0,0-.129.832v1.215c0,.256,0,.192-.128.192s-.129,0-.129-.255a1.083,1.083,0,0,0,0-.64c-.128-.32-.32-.512-1.283-.64h-2.437c-.256,0,0,0,0,.192v5.118h2.822c.384,0,.641,0,.834-.256s.192-.255.256-.255,0,0,0,.128a4.957,4.957,0,0,0-.128,1.023v1.151c0,.128,0,.32-.128.32s-.129,0-.129-.192v-.576c0-.255-.256-.575-.9-.639-.705-.064-2.244,0-2.565,0s-.128,0-.128.128v4.67c0,1.215.32,1.471,2.117,1.471a8,8,0,0,0,1.731-.192c.448-.192.642-.576.769-1.279,0-.192,0-.256.192-.256s0,.128,0,.256a15.789,15.789,0,0,1-.192,1.727c0,.447-.256.447-.962.447h-6.093c-.192,0-.256,0-.256-.128s0,0,.128,0h.513c.385,0,.449-.512.513-1.024s0-2.111,0-3.9Z"
      transform="translate(829.859 -161.772)"
      fill="#fff"
    />
    <path
      id="Path_28871"
      data-name="Path 28871"
      d="M-757.64,237.833c.192-.576.321-.7.385-.7s.192.128.385.639,3.078,8.06,4.1,10.746c.641,1.6,1.154,1.855,1.539,1.983a1.309,1.309,0,0,0,.7,0h.192a.56.56,0,0,1-.385.128h-2.821c-.321,0-.514,0-.514-.128s0,0,.128,0,.192-.192,0-.447l-1.475-4.35h-4.1a.125.125,0,0,0-.128.128l-1.09,3.134a7.364,7.364,0,0,0-.256,1.151c0,.384.384.512.641.512h.385s0,.128-.257.128h-3.4c-.193,0-.321,0-.321-.128s0,0,.192,0h.513c.834-.128,1.155-.768,1.475-1.663Zm1.86,7.164v-.128l-1.668-4.8c-.064-.256-.192-.256-.257,0l-1.6,4.8V245Z"
      transform="translate(825.298 -161.522)"
      fill="#fff"
    />
    <path
      id="Path_28872"
      data-name="Path 28872"
      d="M-741.128,245.7c0,1.279.064,2.559.192,3.9,0,.512.193.9.705.96h.9s0,.128-.256.128h-3.848c-.193,0-.321,0-.321-.128s0,0,.128,0h.513c.385,0,.449-.448.513-.96a38.929,38.929,0,0,0,.129-3.9v-7.484h-2.565c-1.09,0-1.54.128-1.86.576-.129.192-.193.32-.321.512,0,.192,0,.192-.192.192s0,0,0-.128.064-1.663.064-1.855c0-.128.128-.384.193-.384a3.136,3.136,0,0,0,.769.255h8.016a8.546,8.546,0,0,0,1.8-.192v2.239c0,.192,0,.192-.129.192s-.129,0-.129-.32v-.192c0-.512-.513-.9-2.116-.96h-2.244Z"
      transform="translate(819.432 -161.522)"
      fill="#fff"
    />
    <path
      id="Path_28873"
      data-name="Path 28873"
      d="M-726.352,245.951c-.064,1.279-.064,2.559,0,3.9,0,.512.128.9.705,1.024h.962s0,.128-.257.128h-3.847c-.192,0-.257,0-.257-.128s0,0,.128,0h.577c.321,0,.449-.512.513-1.024s0-2.111,0-3.9v-6.972c0-.512-.192-.96-.641-1.023h-.641c0-.128,0-.128.257-.128h3.527c.513,0,.321,0,.321.128s0,0-.129,0h-.449c-.449,0-.641.384-.641,1.023v3.838Z"
      transform="translate(812.864 -161.772)"
      fill="#fff"
    />
    <path
      id="Path_28874"
      data-name="Path 28874"
      d="M-714.816,248.993c1.026-2.367,3.4-8.507,3.783-9.851.064-.255.129-.447.193-.7a.351.351,0,0,0-.256-.384h-.9s0-.128.385-.128h3.142c.192,0,.32,0,.32.128s0,.128-.192.128a1.773,1.773,0,0,0-.834.192,3.924,3.924,0,0,0-.962,1.663c-.192.512-1.09,2.686-1.987,4.861-1.09,2.623-1.86,4.478-2.309,5.373s-.577,1.343-.77,1.343-.321-.256-.641-1.087l-4.233-10.938c-.385-1.023-.642-1.215-1.283-1.407H-722a.126.126,0,0,1-.128-.128c0-.128.193-.128.449-.128h3.783c.321,0,.513,0,.513.128s0,.128-.192.128a1.091,1.091,0,0,0-.641,0,.425.425,0,0,0-.257.32,14.062,14.062,0,0,0,.449,1.535Z"
      transform="translate(810.37 -161.808)"
      fill="#fff"
    />
    <path
      id="Path_28875"
      data-name="Path 28875"
      d="M-698.142,242.816v-3.838a.919.919,0,0,0-.77-1.023h-.769s0-.128.257-.128h7.118c.128,0,0,0,0,.192a3.733,3.733,0,0,0-.129.832V240c0,.192,0,.192-.128.255-.128,0-.128,0-.128-.255a2.262,2.262,0,0,0-.128-.64c-.129-.32-.321-.512-1.219-.64h-2.437c-.321,0,0,0,0,.192v5.118h2.821c.384,0,.705,0,.834-.256s.192-.255.321-.255c.063,0,0,0,0,.128a4.4,4.4,0,0,1-.129,1.023,3.2,3.2,0,0,0,0,1.151c0,.128,0,.32-.128.32s-.129,0-.129-.128v-.576c0-.255-.257-.576-.962-.639s-2.116,0-2.565,0v4.8c0,1.215.321,1.471,2.116,1.471a7.02,7.02,0,0,0,1.668-.192c.513-.192.705-.576.834-1.279,0-.192,0-.256.128-.256s.128.128.128.256-.192,1.343-.256,1.727-.256.448-.962.448h-6.092c-.192,0-.257,0-.257-.128s0,0,.129,0h.513c.321,0,.449-.448.513-.96s0-2.111,0-3.9Z"
      transform="translate(802.354 -161.772)"
      fill="#fff"
    />
    <path
      id="Path_28876"
      data-name="Path 28876"
      d="M-803.871,194.637c0,3.326.513,4.414,1.6,4.733.642.128,1.347.192,1.989.256.192,0,.32,0,.32.256s-.257.32-.769.32c-2.309,0-3.912-.128-4.233-.128s-2.116.128-3.912.128c-.384,0-.641,0-.641-.32s.128-.256.32-.256a4.794,4.794,0,0,0,1.668-.256c1.026-.32,1.218-1.471,1.218-5.181V170.778c0-1.6.129-2.111.449-2.111s1.026.9,1.411,1.343c.385.384,6.67,7.228,12.89,13.945,4.04,4.222,8.4,9.275,9.748,10.618l-.449-20.533c0-2.622-.321-3.518-1.6-3.838a10.487,10.487,0,0,0-1.988-.192c-.256,0-.321-.128-.321-.255s.321-.32.834-.32c1.859,0,3.784.128,4.232.128s1.8-.128,3.463-.128c.449,0,.705,0,.705.32s-.128.255-.449.255a4.943,4.943,0,0,0-.962.128c-1.347.255-1.476,1.215-1.476,3.646v23.859c0,2.686,0,2.878-.384,2.878s-.834-.447-2.95-2.623c-.449-.384-6.285-6.4-10.646-11.066-4.682-5.053-9.3-10.234-10.645-11.705Z"
      transform="translate(841.58 -137.004)"
      fill="#fff"
    />
    <path
      id="Path_28877"
      data-name="Path 28877"
      d="M-522.369,190.1a8.491,8.491,0,0,0-.962-4.35c-.256-.639-5.772-9.723-7.247-11.9a12.309,12.309,0,0,0-2.886-2.878,3.357,3.357,0,0,0-1.732-.639c-.192,0-.384,0-.384-.32s.128-.255.513-.255l4.1.128c.256,0,1.86-.128,3.463-.128.45,0,.513.128.513.255,0,.192-.256.192-.641.384a.771.771,0,0,0-.513.768,4.681,4.681,0,0,0,.513,1.6c.641,1.216,6.862,11.9,7.567,13.049.769-1.727,5.964-10.746,6.8-12.153a3.628,3.628,0,0,0,.705-2.111c0-.576-.129-1.087-.642-1.152-.513-.128-.641-.192-.641-.384s.256-.255.641-.255c1.09,0,2.373.128,2.758.128l3.976-.128c.321,0,.513,0,.513.255s-.192.32-.513.32a3.955,3.955,0,0,0-1.86.575,8.284,8.284,0,0,0-2.116,2.111,136.606,136.606,0,0,0-7.888,13.113,10.279,10.279,0,0,0-.642,4.158v3.454c0,.639,0,2.431.129,4.157a2.028,2.028,0,0,0,1.731,2.3c.641.064,1.219.128,1.86.192.256,0,.321,0,.321.256s-.256.32-.705.32c-2.116,0-4.81-.128-5.066-.128s-2.822.128-4.04.128c-.449,0-.642,0-.642-.32s0-.256.321-.256a4.457,4.457,0,0,0,1.283-.192c.834-.192,1.219-1.087,1.283-2.3.128-1.727.128-3.518.128-4.157Z"
      transform="translate(743.747 -137.394)"
      fill="#fff"
    />
    <path
      id="Path_28878"
      data-name="Path 28878"
      d="M-852.539,181.562v-8.828c0-1.279-.384-2.111-1.731-2.367a9.69,9.69,0,0,0-1.411-.128c-.192,0-.32,0-.32-.192s.192-.384.641-.384c1.86,0,4.232.128,4.681.128s2.822-.128,4.1-.128c.449,0,.641,0,.641.384s-.192.192-.32.192a5.652,5.652,0,0,0-1.026.128c-1.09.192-1.411.9-1.475,2.367s0,2.431,0,8.828v5.757c0,5.885,1.347,8.507,3.079,10.17a8.07,8.07,0,0,0,6.156,2.3,8.387,8.387,0,0,0,6.413-3.007c1.731-2.431,2.309-5.821,2.309-10.106V172.734c0-1.279-.385-2.111-1.731-2.367a10.589,10.589,0,0,0-1.411-.128c-.192,0-.321,0-.321-.192s.193-.384.642-.384c1.859,0,4.1.128,4.233.128s2.116-.128,3.463-.128c.449,0,.641,0,.641.384s-.192.192-.32.192a5.648,5.648,0,0,0-1.026.128c-1.09.192-1.411.9-1.54,2.367-.064,1.471,0,2.431,0,8.828v4.349c0,4.414-.513,9.4-3.783,12.282a12.291,12.291,0,0,1-8.4,3.07,12.49,12.49,0,0,1-8.4-2.942c-1.988-1.919-3.591-4.8-3.591-10.811Z"
      transform="translate(858.182 -137.361)"
      fill="#fff"
    />
    <path
      id="Path_28879"
      data-name="Path 28879"
      d="M-749.931,188.826c0,3.965,0,7.228.192,8.955.129,1.216.385,2.111,1.6,2.3.577,0,1.475.128,1.86.128s.321.128.321.256-.192.32-.641.32c-2.245,0-4.81-.128-5-.128s-2.822.128-4.04.128c-.449,0-.642,0-.642-.32s0-.256.321-.256a8.854,8.854,0,0,0,1.218-.128c.833-.192,1.026-1.087,1.219-2.3.192-1.727.192-4.925.192-8.955V172.834c0-1.279-.513-2.111-1.411-2.3a4.457,4.457,0,0,0-1.283-.191c-.128,0-.321,0-.321-.192s.193-.384.641-.384c1.347,0,3.912.128,4.1.128s2.757-.128,4.04-.128c.449,0,.642,0,.642.384s-.192.192-.321.192a5.6,5.6,0,0,0-1.026.128c-1.09.192-1.411.9-1.539,2.367-.064,1.471,0,2.431,0,8.827Z"
      transform="translate(822.591 -137.397)"
      fill="#fff"
    />
    <path
      id="Path_28880"
      data-name="Path 28880"
      d="M-723.894,195.7c2.309-5.629,7.824-19.83,8.722-22.772a4.38,4.38,0,0,0,.321-1.535,1.127,1.127,0,0,0-.513-.96,6.347,6.347,0,0,0-1.539-.192c-.256,0-.449,0-.449-.192s.257-.384.9-.384c1.6,0,3.528.128,4.041.128s1.988-.128,3.206-.128c.449,0,.705,0,.705.256s-.192.32-.513.32a3.7,3.7,0,0,0-1.988.512c-.513.384-1.154,1.087-2.245,3.9-.449,1.152-2.5,6.077-4.553,11.13-2.5,6.012-4.233,10.426-5.259,12.473-1.154,2.431-1.347,3.134-1.731,3.134s-.706-.576-1.475-2.559l-10-25.139c-.9-2.3-1.539-2.75-2.95-3.2a6.348,6.348,0,0,0-1.539-.191c-.257,0-.321-.128-.321-.32s.449-.255,1.09-.255c1.989,0,4.233.128,4.81.128s2.245-.128,3.784-.128c.77,0,1.09,0,1.09.255s-.129.32-.385.32a6.35,6.35,0,0,0-1.539.191.857.857,0,0,0-.513.832,16.075,16.075,0,0,0,1.09,3.391Z"
      transform="translate(817.14 -137.361)"
      fill="#fff"
    />
    <path
      id="Path_28881"
      data-name="Path 28881"
      d="M-686.214,181.419c0-6.4,0-7.549-.128-8.828s-.385-2.111-1.732-2.367a9.689,9.689,0,0,0-1.411-.128c-.192,0-.32,0-.32-.192s.192-.384.641-.384c1.86,0,4.425.128,4.618.128h9.363c.577-.064,1.154-.128,1.8-.192.192,0,.384-.192.577-.192s.193.128.193.384c0,.192-.193.768-.321,1.919,0,.384-.128,2.111-.192,2.686s-.128.448-.321.448-.321-.192-.321-.512a3.743,3.743,0,0,0-.256-1.471c-.257-.64-.705-1.152-2.886-1.408-.705,0-5.131-.128-5.58-.128s-.256.128-.256.448v11.322c0,.256,0,.384.256.384h6.413a2.948,2.948,0,0,0,1.988-.576c.385-.384.449-.512.577-.512.192,0,.192,0,.192.32s-.192.96-.32,2.3c0,.831-.129,2.367-.129,2.686s0,.768-.321.768-.256-.192-.256-.384a4.873,4.873,0,0,0-.192-1.343c-.129-.576-.513-1.279-2.116-1.408-1.09-.128-5.131-.192-5.836-.192a.294.294,0,0,0-.321.256v10.618c.129,2.879.77,3.39,4.746,3.39a11.9,11.9,0,0,0,3.976-.447c1.026-.448,1.539-1.28,1.86-2.943,0-.447.129-.575.321-.575s.257.32.257.575c-.128,1.343-.257,2.687-.513,4.03-.321,1.087-.642,1.087-2.117,1.087-6.156,0-8.914-.256-10.068-.256-.192,0-2.758.128-4.04.128-.449,0-.641,0-.641-.32s0-.255.321-.255a7.855,7.855,0,0,0,1.218-.128c.834-.192,1.026-1.087,1.218-2.3.193-1.727.193-4.926.193-8.956Z"
      transform="translate(798.827 -137.218)"
      fill="#fff"
    />
    <path
      id="Path_28882"
      data-name="Path 28882"
      d="M-618.236,199.89c-.577-.32-.641-.448-.641-1.535,0-2.111.193-3.71.193-4.222,0-.576.128-.639.32-.639s.321.128.321.447a6.207,6.207,0,0,0,.128,1.535,6.088,6.088,0,0,0,7.759,3.774,6.1,6.1,0,0,0,4.1-5.117c0-2.878-1.219-4.478-4.681-7.42l-1.86-1.535c-4.232-3.582-5.323-6.141-5.323-8.956,0-4.35,3.27-7.356,8.529-7.356a19.6,19.6,0,0,1,3.848.384,5.359,5.359,0,0,0,1.411.192c.32,0,.449,0,.449.32s-.192,1.535-.192,4.222c0,.64,0,.96-.321.96s-.321-.192-.321-.576a7.843,7.843,0,0,0-.513-2.111c-.256-.512-1.347-2.111-5.066-2.111a4.675,4.675,0,0,0-5.13,4.157v.576c0,2.367,1.154,3.71,5,6.909l1.154.9c4.81,3.838,5.964,6.4,5.964,9.659a8.387,8.387,0,0,1-3.463,6.78,10.584,10.584,0,0,1-6.156,1.727,11.585,11.585,0,0,1-5.515-.96"
      transform="translate(773.496 -137.076)"
      fill="#fff"
    />
    <path
      id="Path_28883"
      data-name="Path 28883"
      d="M-584.7,188.79c0,3.966,0,7.228.192,8.955.129,1.216.385,2.111,1.6,2.3.577,0,1.475.128,1.86.128s.321.128.321.256-.193.32-.641.32c-2.245,0-4.81-.128-5-.128s-2.693.128-4.04.128c-.449,0-.641,0-.641-.32s0-.256.321-.256a8.771,8.771,0,0,0,1.282-.128c.834-.192,1.026-1.087,1.218-2.3.192-1.727.192-4.925.192-8.955V172.734c0-1.279-.513-2.111-1.411-2.3a4.46,4.46,0,0,0-1.283-.192c-.128,0-.32,0-.32-.192s.192-.384.641-.384c1.347,0,3.912.128,4.1.128s2.757-.128,4.04-.128c.449,0,.642,0,.642.384s-.128.192-.321.192a5.662,5.662,0,0,0-1.026.128c-1.154.192-1.475.9-1.539,2.367s0,2.431,0,8.828Z"
      transform="translate(763.556 -137.361)"
      fill="#fff"
    />
    <path
      id="Path_28884"
      data-name="Path 28884"
      d="M-561.467,188.469c0,3.965,0,7.228.192,8.955.128,1.216.385,2.111,1.6,2.3.577,0,1.474.128,1.86.128s.321.128.321.256-.192.32-.641.32c-2.245,0-4.81-.128-5-.128s-2.822.128-4.04.128c-.449,0-.641,0-.641-.32s0-.256.321-.256a4.173,4.173,0,0,0,1.218-.128c.834-.192,1.026-1.087,1.218-2.3.193-1.727.193-4.925.193-8.955V171.134h-6.029c-2.5,0-3.527.32-4.1,1.343a8.2,8.2,0,0,0-.705,1.279.363.363,0,0,1-.385.384c-.192,0-.192-.128-.192-.384s.834-3.966.9-4.222c.064-.32.256-.768.449-.768a8.265,8.265,0,0,0,1.8.512c1.154.128,2.758.192,3.206.192H-554.6a22.256,22.256,0,0,0,4.1-.384c.193,0,.193.192.193.512,0,1.215-.128,4.03-.128,4.477s-.128.576-.321.576-.32-.128-.32-.7V173.5c-.193-1.216-1.09-2.111-5-2.239h-5.13Z"
      transform="translate(758.283 -137.04)"
      fill="#fff"
    />
    <path
      id="Path_28885"
      data-name="Path 28885"
      d="M-656.251,181.543v-8.828c0-1.343-.384-2.111-1.8-2.367a9.682,9.682,0,0,0-1.411-.128c-.128,0-.321,0-.321-.256s.192-.32.641-.32c1.86,0,4.425.128,4.553.128.192,0,3.591-.128,4.81-.128a12.632,12.632,0,0,1,7.439,1.791A7.316,7.316,0,0,1-639.513,177c0,3.071-1.218,6.077-4.938,9.467,1.475,1.855,6.541,8.956,6.541,8.956,5.194,6.716,10.9,12.217,19.175,12.409,3.462.128,3.783-1.279,4.617-.959s-2.308,1.791-4.489,2.111c-1.218.192-11.095,2.495-21.932-12.218,0,0-5.9-8.124-6.734-9.211a.583.583,0,0,0-.513-.255h-4.938c-.192,0-.321,0-.321.32v.96c0,3.966,0,7.164.193,8.891,0,1.215.385,2.111,1.6,2.238a16.947,16.947,0,0,0,1.86.128c.256,0,.321.128.321.255s-.192.32-.641.32c-2.245,0-4.81-.128-5-.128s-2.565.128-3.848.128c-.449,0-.641,0-.641-.32s0-.255.32-.255a7.861,7.861,0,0,0,1.219-.128c.834-.192,1.026-1.087,1.218-2.238.192-1.727.192-4.926.192-8.891v-7.036Zm3.207,3.646a.652.652,0,0,0,.321.512,10.67,10.67,0,0,0,4.233.64,5.155,5.155,0,0,0,3.078-.768,7.7,7.7,0,0,0,2.5-6.4c0-5.053-2.694-8.187-7.054-8.187a13.416,13.416,0,0,0-2.758.255.571.571,0,0,0-.321.512Z"
      transform="translate(788.103 -137.343)"
      fill="#fff"
    />
    <rect
      id="Rectangle_4393"
      data-name="Rectangle 4393"
      width="153.399"
      height="0.576"
      transform="translate(1.412 69.787)"
      fill="#fff"
    />
    <rect
      id="Rectangle_4394"
      data-name="Rectangle 4394"
      width="59.192"
      height="0.576"
      transform="translate(178.346 69.787)"
      fill="#fff"
    />
    <path
      id="Path_28886"
      data-name="Path 28886"
      d="M-567.082,141.471c0,2.878.449,3.774,1.347,4.03a7.955,7.955,0,0,0,1.731.192c.193,0,.321,0,.321.192s-.192.32-.641.32c-1.924,0-3.335-.128-3.656-.128s-1.8.128-3.334.128c-.321,0-.577,0-.577-.32s.129-.192.257-.192a5,5,0,0,0,1.411-.192c.9-.255,1.09-1.279,1.09-4.414V121.066c0-1.343,0-1.727.384-1.727s.834.768,1.219,1.087c.384.384,5.707,6.2,11.03,11.961,3.463,3.71,7.183,7.932,8.337,9.083l-.385-17.718c0-2.239-.321-3.071-1.347-3.326a8,8,0,0,0-1.731-.192c-.257,0-.257-.128-.257-.256s.257-.255.705-.255h6.541c.385,0,.642,0,.642.255s-.129.256-.385.256a1.9,1.9,0,0,0-.834.128c-1.154.256-1.283.96-1.283,3.071v20.4c0,2.3,0,2.495-.321,2.495s-.705-.384-2.565-2.239c-.384-.32-5.387-5.437-9.042-9.467-4.04-4.349-7.952-8.764-9.042-9.979Z"
      transform="translate(756.715 -119.339)"
      fill="#fff"
    />
    <path
      id="Path_28887"
      data-name="Path 28887"
      d="M-849.966,136.654c0,5.054.128,7.357.769,7.932.642.64,1.411.832,4.1.832,1.86,0,3.4,0,4.233-1.023a5.147,5.147,0,0,0,.9-2.111c0-.256,0-.448.321-.448s.192.128.192.512a22.138,22.138,0,0,1-.513,3.518c-.256.831-.321.959-2.116.959-5,0-7.31-.192-9.3-.192-.32,0-2.373.128-3.4.128-.385,0-.577,0-.577-.256s0-.192.257-.192a5.67,5.67,0,0,0,1.027-.128c.705-.128.9-.9,1.026-1.919.192-1.471.192-4.222.192-7.548V123.094c0-1.152-.321-1.727-1.475-1.983a7.168,7.168,0,0,0-1.219-.128c-.128,0-.257,0-.257-.192s.193-.255.577-.255h7.7c.385,0,.577,0,.577.255s-.128.192-.256.192a5.69,5.69,0,0,0-1.09.128c-1.026.192-1.283.768-1.347,1.983s0,2.11,0,7.548Z"
      transform="translate(858.112 -119.767)"
      fill="#fff"
    />
    <path
      id="Path_28888"
      data-name="Path 28888"
      d="M-823.181,136.419c0,3.39,0,6.077.192,7.548.128,1.024.321,1.792,1.347,1.919.449,0,1.218.128,1.539.128s.256.128.256.192c0,.128-.192.256-.577.256-1.924,0-4.1-.128-4.233-.128-.192,0-2.373.128-3.4.128-.385,0-.513,0-.513-.256s0-.192.256-.192a5.612,5.612,0,0,0,1.026-.128c.705-.128.9-.9,1.026-1.919.192-1.471.192-4.222.192-7.548V122.795c0-1.152-.385-1.791-1.154-1.983a6.377,6.377,0,0,0-1.09-.128c-.129,0-.256,0-.256-.192s.128-.255.513-.255h6.926c.384,0,.577,0,.577.255s-.128.192-.256.192a3.781,3.781,0,0,0-.834.128c-.962.192-1.219.768-1.283,1.983s0,2.111,0,7.548Z"
      transform="translate(848.385 -119.66)"
      fill="#fff"
    />
    <path
      id="Path_28889"
      data-name="Path 28889"
      d="M-782.772,141.727c.128,1.279.384,3.2,1.86,3.71a8.077,8.077,0,0,0,2.116.32c.192,0,.32,0,.32.192s-.32.32-.77.32c-.77,0-4.489-.128-5.772-.192-.834,0-.962-.192-.962-.384s0-.192.257-.192.192-.639.128-1.279l-1.667-18.038h-.129l-8.53,18.166c-.705,1.535-.833,1.855-1.154,1.855s-.385-.32-1.09-1.6c-.9-1.727-3.912-7.74-4.04-8.059-.192-.32-4.233-9.02-4.617-9.979h-.129l-1.282,16.119v1.792a1.155,1.155,0,0,0,.9,1.087,4.9,4.9,0,0,0,1.346.192c.129,0,.257,0,.257.192s-.193.32-.642.32c-1.282,0-2.95-.128-3.207-.128-.321,0-1.988.128-2.95.128-.321,0-.577,0-.577-.32s.129-.192.321-.192a2.786,2.786,0,0,0,1.026,0c1.155-.192,1.283-1.6,1.411-2.942l2.629-22.772c0-.384.192-.64.385-.64s.32.128.513.512l10.645,21.876,10.2-21.876c.128-.32.257-.576.513-.576s.384.255.449.96Z"
      transform="translate(842.863 -119.339)"
      fill="#fff"
    />
    <path
      id="Path_28890"
      data-name="Path 28890"
      d="M-713.691,119.438c7.824,0,13.66,4.926,13.66,13.049a13.689,13.689,0,0,1-13.147,14.265h-.77c-9.555,0-13.467-7.42-13.467-13.689a13.5,13.5,0,0,1,13.339-13.625h.384m.77,26.035c3.142,0,9.555-1.855,9.555-11.962,0-8.379-5.067-12.857-10.646-12.857s-10.132,3.838-10.132,11.514c0,8.124,4.873,13.368,11.222,13.3"
      transform="translate(812.259 -119.374)"
      fill="#fff"
    />
    <path
      id="Path_28891"
      data-name="Path 28891"
      d="M-622.811,141.656h.129c.9-3.2,4.1-13.3,5.322-17.782a8.75,8.75,0,0,0,.513-2.239c0-.64-.384-1.024-1.988-1.024-.192,0-.321,0-.321-.255s.192-.256.577-.256h6.413c.321,0,.513,0,.513.192s0,.256-.321.256a4.016,4.016,0,0,0-1.218.192c-1.027.383-1.6,1.854-2.245,3.774-1.539,4.414-5,15.48-6.413,19.382-.9,2.623-1.09,3.007-1.41,3.007-.385,0-.577-.448-1.09-1.855l-6.8-19.382h0c-1.283,3.39-6.028,16.12-7.246,19.382-.513,1.471-.769,1.855-1.155,1.855s-.513-.384-1.218-2.75l-6.349-20.661c-.577-1.792-1.026-2.367-1.86-2.751a6.485,6.485,0,0,0-1.6-.191c-.192,0-.321,0-.321-.256s.192-.256.577-.256h7.7c.513,0,.641,0,.641.256s-.192.256-.32.256a4.9,4.9,0,0,0-1.347.191,1.094,1.094,0,0,0-.449.832,28.278,28.278,0,0,0,.642,3.2c.513,2.239,4.232,15.032,4.617,16.887h0l7.375-19.893c.513-1.407.641-1.6.834-1.6s.513.447.9,1.6Z"
      transform="translate(784.932 -119.589)"
      fill="#fff"
    />
    <path
      id="Path_28892"
      data-name="Path 28892"
      d="M-583.172,136.419c0,3.39,0,6.077.129,7.548,0,1.024.32,1.792,1.347,1.919.513,0,1.283.128,1.539.128s.256.128.256.256-.193.255-.577.255c-1.924,0-4.1-.128-4.233-.128-.192,0-2.373.128-3.4.128-.385,0-.577,0-.577-.255s0-.256.321-.256a5.6,5.6,0,0,0,1.026-.128c.641-.128.834-.9,1.026-1.919.129-1.471.129-4.222.129-7.548V122.73c0-1.152-.449-1.791-1.155-1.919a5.689,5.689,0,0,0-1.09-.128c-.128,0-.321,0-.321-.192s.192-.255.577-.255h6.926c.385,0,.577,0,.577.255s-.128.192-.256.192a3.788,3.788,0,0,0-.834.128c-.962.192-1.219.768-1.283,1.983s0,2.111,0,7.548Z"
      transform="translate(762.736 -119.66)"
      fill="#fff"
    />
    <path
      id="Path_28893"
      data-name="Path 28893"
      d="M-508.174,137.468c0-2.878-.192-3.2-1.6-3.646a7.061,7.061,0,0,0-1.154-.128c-.128,0-.257,0-.257-.192s.193-.256.513-.256h7.375c.385,0,.577,0,.577.256s-.128.192-.321.192a3.741,3.741,0,0,0-.833.128c-.963.192-1.219.768-1.283,2.047-.064,1.215,0,2.111,0,3.646v3.9c0,1.6,0,1.663-.449,1.855a16.311,16.311,0,0,1-7.375,1.6,17.25,17.25,0,0,1-11.415-3.71,13.545,13.545,0,0,1-4.1-9.979,13.167,13.167,0,0,1,5.772-11.45,17.239,17.239,0,0,1,9.234-2.111,36.505,36.505,0,0,1,5.323.576,14.128,14.128,0,0,0,2.821.32c.321,0,.449.192.449.32a42.156,42.156,0,0,0-.256,4.925c0,.576,0,.768-.321.7-.321,0-.193-.192-.256-.512a4.926,4.926,0,0,0-.77-2.3c-.9-1.279-3.656-2.815-8.145-2.815a11.1,11.1,0,0,0-7.439,2.3,11.235,11.235,0,0,0-3.463,8.827,13.832,13.832,0,0,0,3.72,9.659,12.661,12.661,0,0,0,9.106,3.774,8.652,8.652,0,0,0,3.976-.768,1.37,1.37,0,0,0,.705-1.215Z"
      transform="translate(741.224 -119.43)"
      fill="#fff"
    />
    <path
      id="Path_28894"
      data-name="Path 28894"
      d="M-755.852,130.307v-7.548c0-1.152-.321-1.791-1.475-1.983a7.136,7.136,0,0,0-1.155-.128c-.128,0-.257,0-.257-.192s.129-.256.513-.256h7.247c.385,0,.513,0,.513.256s-.129.192-.256.192a3.783,3.783,0,0,0-.834.128c-.962.192-1.218.768-1.283,1.983-.064,1.279,0,2.111,0,7.548v2.111h.128c.577-.7,6.862-7.1,8.145-8.508.962-1.024,1.86-1.919,1.86-2.559,0-.575-.193-.639-.449-.7s-.321-.128-.321-.32c0-.128.193-.192.449-.192h5.963c.385,0,.513,0,.513.192s0,.256-.32.256a4.368,4.368,0,0,0-1.988.512,12.473,12.473,0,0,0-3.784,3.007c-.9.831-6.925,6.78-7.631,7.676.9,1.023,8.144,8.508,9.556,9.851a15.826,15.826,0,0,0,5.194,3.966,6.272,6.272,0,0,0,2.116.448c.257,0,.449,0,.449.192s-.193.255-.77.255H-737.9a7.059,7.059,0,0,1-4.233-2.11c-1.6-1.279-8.914-9.339-10.645-11.322h-.193v3.454c0,3.326,0,6.077.193,7.549.128,1.023.32,1.791,1.347,1.919.513,0,1.026.128,1.346.128s.257,0,.257.192-.192.256-.577.256h-7.376c-.384,0-.576,0-.576-.256s0-.192.256-.192a5.611,5.611,0,0,0,1.026-.128c.705-.128.834-.9,1.026-1.919.192-1.472.192-4.222.192-7.549v-6.2Z"
      transform="translate(823.446 -119.624)"
      fill="#fff"
    />
    <path
      id="Path_28895"
      data-name="Path 28895"
      d="M-682.665,130.307v-7.548c0-1.152-.384-1.791-1.539-1.983a7.126,7.126,0,0,0-1.154-.128c-.128,0-.256,0-.256-.192s.193-.256.577-.256h7.247c.385,0,.577,0,.577.256s-.128.192-.257.192a4.369,4.369,0,0,0-.9.128c-.962.192-1.218.768-1.283,1.983-.064,1.279,0,2.111,0,7.548v2.111h.129c.577-.7,6.862-7.1,8.08-8.508.962-1.024,1.86-1.919,1.86-2.559,0-.575-.193-.639-.449-.7s-.321-.128-.321-.32c0-.128.192-.192.449-.192h5.965c.384,0,.513,0,.513.192s0,.256-.385.256a4.366,4.366,0,0,0-1.988.512,12.792,12.792,0,0,0-3.976,3.007c-.9.831-6.926,6.78-7.632,7.676.9,1.023,8.145,8.508,9.556,9.851,2.95,2.75,3.527,3.326,5.195,3.966a6.267,6.267,0,0,0,2.117.448c.256,0,.449,0,.449.192s-.192.255-.77.255h-4.168a7.059,7.059,0,0,1-4.233-2.11c-1.6-1.279-8.915-9.339-10.646-11.322h-.192v3.454c0,3.326,0,6.077.192,7.549,0,1.023.257,1.791,1.347,1.919a9.547,9.547,0,0,0,1.347.128c.192,0,.256,0,.256.192s-.192.256-.577.256h-7.31c-.385,0-.513,0-.513-.256s0-.192.257-.192a5.606,5.606,0,0,0,1.026-.128c.705-.128.9-.9,1.026-1.919.192-1.472.192-4.222.192-7.549Z"
      transform="translate(797.33 -119.624)"
      fill="#fff"
    />
  </g>
</svg>
