<svg xmlns="http://www.w3.org/2000/svg" xmlns:xlink="http://www.w3.org/1999/xlink" width="275" height="275" viewBox="0 0 275 275">
  <defs>
    <clipPath id="clip-path">
      <rect id="Rectangle_4482" data-name="Rectangle 4482" width="275" height="275" fill="none"/>
    </clipPath>
  </defs>
  <g id="Group_27137" data-name="Group 27137" clip-path="url(#clip-path)">
    <path id="Path_29060" data-name="Path 29060" d="M102.925,413.3c0,2.865-17.948,5.187-40.089,5.187s-40.089-2.323-40.089-5.187,17.948-5.187,40.089-5.187,40.089,2.323,40.089,5.187" transform="translate(-8.157 -143.484)" fill="#d8d8d6"/>
    <path id="Path_29061" data-name="Path 29061" d="M41.747,54.848S17.974,49.824,12.352,68.105s-8.3,61.457,15.1,61.922c25.531.507,14.291-75.179,14.291-75.179" transform="translate(-3.044 -19.061)" fill="#2c2c2c"/>
    <path id="Path_29062" data-name="Path 29062" d="M31.334,56.729l-1.592-.247A13.484,13.484,0,0,1,31.013,52.7c1.35-2.6,3.362-4.017,5.821-4.11a5.611,5.611,0,0,1,4.357,1.48,6.242,6.242,0,0,1,1.638,4.19l-1.61-.034a4.622,4.622,0,0,0-1.167-3,4.092,4.092,0,0,0-3.158-1.005c-4.532.171-5.551,6.447-5.56,6.511" transform="translate(-10.665 -17.082)" fill="#2c2c2c"/>
    <path id="Path_29063" data-name="Path 29063" d="M104.081,128.854a96.765,96.765,0,0,1-6,24.8l-9.823-5.927c.249-.436,5.371-9.562,5.221-20.111-.067-4.708-1.568-13.652-3.385-22.8-.311-1.563-.631-3.132-.953-4.685-1.735-8.343-3.571-16.279-4.649-20.7a5.787,5.787,0,0,1,4.187-7A5.717,5.717,0,0,1,95.6,76.667c.022.093,2.292,9.425,4.551,20.183q.091.437.182.87.219,1.055.425,2.088c2.66,13.3,3.844,23.838,3.321,29.048" transform="translate(-30.238 -25.407)" fill="#fd9680"/>
    <path id="Path_29064" data-name="Path 29064" d="M103.452,113.608l-10.664,5.01c-.311-1.563-.631-3.132-.953-4.685l11.192-2.412q.219,1.054.425,2.087" transform="translate(-32.93 -39.209)" fill="#ec715a"/>
    <path id="Path_29065" data-name="Path 29065" d="M91.958,69.3s3.55-.228,6.133,8.063,5.543,19.423,5.543,19.423l-13.521,3.982S84.306,72.6,91.958,69.3" transform="translate(-31.556 -24.364)" fill="#171717"/>
    <path id="Path_29066" data-name="Path 29066" d="M94.333,110.091a.385.385,0,0,1-.369-.281.389.389,0,0,1,.262-.482l10.086-2.966a.385.385,0,0,1,.477.265.391.391,0,0,1-.262.482l-10.086,2.965a.39.39,0,0,1-.108.016" transform="translate(-33.688 -37.39)" fill="#0e0e0e"/>
    <path id="Path_29067" data-name="Path 29067" d="M97.825,141.36a.326.326,0,0,1-.306-.253.33.33,0,0,1,.242-.395l4.246-1.01a.328.328,0,0,1,.149.639l-4.246,1.011a.345.345,0,0,1-.085.008" transform="translate(-34.966 -49.114)" fill="#ec715a"/>
    <path id="Path_29068" data-name="Path 29068" d="M100.075,140.507a.322.322,0,0,1-.221-.1.33.33,0,0,1,0-.464l1.614-1.607a.322.322,0,0,1,.459,0,.33.33,0,0,1,0,.464l-1.614,1.607a.323.323,0,0,1-.238.094" transform="translate(-35.773 -48.604)" fill="#ec715a"/>
    <path id="Path_29069" data-name="Path 29069" d="M52.649,386.382l.834,6.7h8.449l.491-7.048Z" transform="translate(-18.879 -135.721)" fill="#fd9680"/>
    <path id="Path_29070" data-name="Path 29070" d="M87.866,384.772l1.026,7.783h8.449l-.326-8.014Z" transform="translate(-31.507 -135.197)" fill="#fd9680"/>
    <path id="Path_29071" data-name="Path 29071" d="M117.029,409.1H85.072a4.56,4.56,0,0,1-.421-1.794c-.2-2.732.663-7.094,1.085-9.844.051-.321.095-.621.13-.892a9.548,9.548,0,0,0,.095-1.123c0-2.244,1.965-1.86,1.965-1.86,3.234,3.206,6.9-1.6,9.034-.025,0,0,.92.667,3.459,2.974s6.852,3.831,10.524,5.384c4.743,2,6.087,4.006,6.35,5.384a2.546,2.546,0,0,1-.263,1.794" transform="translate(-30.344 -138.255)" fill="#2c2c2c"/>
    <path id="Path_29072" data-name="Path 29072" d="M117.045,416.732H85.089a4.56,4.56,0,0,1-.421-1.794h32.64a2.546,2.546,0,0,1-.263,1.794" transform="translate(-30.36 -145.885)" fill="#171717"/>
    <path id="Path_29073" data-name="Path 29073" d="M88.955,410.911h-.949a7.136,7.136,0,0,0,1.718-5.173,9.136,9.136,0,0,0-3.365-6.465c.051-.321.095-.621.13-.892a9.917,9.917,0,0,1,4,7.319,7.894,7.894,0,0,1-1.529,5.211" transform="translate(-30.967 -140.064)" fill="#171717"/>
    <path id="Path_29074" data-name="Path 29074" d="M108.108,400.421a.533.533,0,0,1-.126-1.049l2-.5a.526.526,0,0,1,.638.388.533.533,0,0,1-.384.645l-2,.5a.506.506,0,0,1-.127.016" transform="translate(-38.577 -140.23)" fill="#fff"/>
    <path id="Path_29075" data-name="Path 29075" d="M105.016,397.83a.533.533,0,0,1-.126-1.049l2-.5a.526.526,0,0,1,.638.388.533.533,0,0,1-.384.645l-2,.5a.547.547,0,0,1-.128.016" transform="translate(-37.468 -139.319)" fill="#fff"/>
    <path id="Path_29076" data-name="Path 29076" d="M111.221,402.231a.533.533,0,0,1-.126-1.049l2-.5a.526.526,0,0,1,.638.388.533.533,0,0,1-.384.645l-2,.5a.509.509,0,0,1-.128.016" transform="translate(-39.693 -140.866)" fill="#fff"/>
    <path id="Path_29077" data-name="Path 29077" d="M114.333,403.97a.533.533,0,0,1-.126-1.049l2-.5a.526.526,0,0,1,.638.388.533.533,0,0,1-.384.645l-2,.5a.5.5,0,0,1-.127.016" transform="translate(-40.809 -141.478)" fill="#fff"/>
    <path id="Path_29078" data-name="Path 29078" d="M117.727,405.578a.533.533,0,0,1-.126-1.049l2-.5a.527.527,0,0,1,.638.388.533.533,0,0,1-.385.645l-2,.5a.506.506,0,0,1-.127.016" transform="translate(-42.026 -142.043)" fill="#fff"/>
    <path id="Path_29079" data-name="Path 29079" d="M121.407,406.949a.533.533,0,0,1-.126-1.049l2-.5a.525.525,0,0,1,.638.388.533.533,0,0,1-.384.645l-2,.5a.534.534,0,0,1-.127.016" transform="translate(-43.346 -142.525)" fill="#fff"/>
    <path id="Path_29080" data-name="Path 29080" d="M31.669,195.989c.083.337.172.666.27.988,0,.012.007.025.01.038q.2.654.441,1.253c1.431,3.543,12.494,4.062,23.385,2.831,8.447-.955,16.792-2.966,20.455-5.44,3.441-2.321-3.886-23.744-3.886-23.744l-41.319,8.767s-.929,8.909.644,15.308" transform="translate(-11.027 -60.442)" fill="#171717"/>
    <path id="Path_29081" data-name="Path 29081" d="M70.9,210.833l6.77,59.068c-1.558,9.939,2.638,50.636,2.638,50.636l12.167-.372,3.533-53.908c-.081-15.606-1.707-37.182-4.1-60.72-.037-.361-.073-.721-.112-1.083q-.183-1.8-.375-3.62c-.034-.323-.068-.645-.1-.97l-3.978,1.852-.975.455-15.622,7.273Z" transform="translate(-25.366 -70.269)" fill="#171717"/>
    <path id="Path_29082" data-name="Path 29082" d="M83.48,324.89a.5.5,0,0,0,.062,0,.512.512,0,0,0,.442-.571c-4.328-35.549-1.522-50.162-1.493-50.3a.535.535,0,0,0,.006-.169l-7.3-56.334a.507.507,0,1,0-1.006.134l7.29,56.253c-.229,1.272-2.682,16.227,1.5,50.547a.509.509,0,0,0,.5.45" transform="translate(-26.602 -76.315)" fill="#0e0e0e"/>
    <path id="Path_29083" data-name="Path 29083" d="M88.243,188.889a21.029,21.029,0,0,0,4.392,9.209,11.786,11.786,0,0,0,2.325,2.007,9.753,9.753,0,0,0,2.156,1.058,8.639,8.639,0,0,0,1.06.3c-.037-.361-.073-.72-.112-1.083-.171-.044-.34-.094-.507-.15a8.839,8.839,0,0,1-2.049-.988,10.433,10.433,0,0,1-1.9-1.6c-3.337-3.526-4.358-8.879-4.37-8.943a.508.508,0,0,0-.591-.41.513.513,0,0,0-.405.6" transform="translate(-31.639 -66.197)" fill="#0e0e0e"/>
    <path id="Path_29084" data-name="Path 29084" d="M73.829,201.374a.419.419,0,0,1-.4.432h0a.416.416,0,0,1-.441-.391c-.075-1.545-.165-3.126-.264-4.706q-.025-.417-.053-.835c-.332-5.163-.753-10.231-1.072-13.809-.026-.289-.051-.57-.076-.84-.071-.785-.135-1.482-.19-2.071q.421-.066.837-.137c.055.59.119,1.293.191,2.087.025.269.049.551.075.84.315,3.547.734,8.571,1.067,13.7.019.283.037.567.055.85.1,1.637.195,3.278.273,4.877" transform="translate(-25.578 -62.939)" fill="#0e0e0e"/>
    <path id="Path_29085" data-name="Path 29085" d="M73.112,196.2a11,11,0,0,1-1.476.571,8.5,8.5,0,0,1-.834.213,5.874,5.874,0,0,1-.8.105,2.885,2.885,0,0,1-1.418-.224,1.745,1.745,0,0,1-.961-1.3c-.307-1.593-.952-8.169-1.386-12.821-.028-.286-.053-.565-.079-.836-.069-.744-.13-1.421-.182-2,.279-.034.56-.068.84-.106.053.578.115,1.263.185,2.017.025.27.051.549.077.836.436,4.64,1.078,11.207,1.376,12.751a.917.917,0,0,0,.509.72,2.95,2.95,0,0,0,1.786.024c.284-.063.567-.143.831-.229a9.945,9.945,0,0,0,1.159-.46.426.426,0,0,1,.566.186.409.409,0,0,1-.192.552" transform="translate(-23.658 -63.216)" fill="#0e0e0e"/>
    <path id="Path_29086" data-name="Path 29086" d="M31.276,195.845s.293,3.323.759,8.416c.029.318.06.642.089.976a.036.036,0,0,1,0,.012.16.16,0,0,0,.005.038c.031.332.062.671.092,1.015,1.179,12.83,3.2,34.136,4.531,44.383,0,0-.2,19.281.509,34.161.654,13.825,5.37,30.41,6.035,34.509H55.84l.123-1.821V202.583a122.13,122.13,0,0,0-11.695-4.8c-.327-.113-.656-.223-.986-.333-.625-.2-1.251-.4-1.875-.587q-.5-.148-.992-.285c-3.73-1.033-7.2-1.546-9.14-.729" transform="translate(-11.215 -68.714)" fill="#171717"/>
    <path id="Path_29087" data-name="Path 29087" d="M46.775,325.272a.492.492,0,0,0,.1-.01.512.512,0,0,0,.4-.6c-.035-.18-3.467-18.169-4.953-28.359-1.481-10.158-.751-38.731-.743-39.018a.556.556,0,0,0,0-.073c-1.112-9.558-3.387-42.554-3.41-42.886a.507.507,0,1,0-1.011.071c.022.332,2.292,33.27,3.409,42.9-.03,1.187-.714,29.08.755,39.157,1.489,10.213,4.926,28.224,4.961,28.4a.509.509,0,0,0,.5.416" transform="translate(-13.322 -75.185)" fill="#0e0e0e"/>
    <path id="Path_29088" data-name="Path 29088" d="M61.888,406.464c0,.077,0,.152,0,.225-.008.342-.022.649-.037.913-.035.58-.076.936-.076.936H42.737a10.733,10.733,0,0,1-.021-1.849,9.655,9.655,0,0,1,3.4-7.124c3.6-2.813,2.209-2.226,2.947-3.508.083-.143.731-2.321.8-2.471.618-1.331,1.189-1.961,4.6-1.961,4.523,0,4.921,2.219,5.4,3.387a21.917,21.917,0,0,1,.753,2.716c.114.486.228,1.006.34,1.535.279,1.326.539,2.71.716,3.815a20.209,20.209,0,0,1,.214,3.385" transform="translate(-15.307 -137.688)" fill="#2c2c2c"/>
    <path id="Path_29089" data-name="Path 29089" d="M71.272,409.764c0,.077,0,.152,0,.225-.008.342-.022.649-.037.913a5.368,5.368,0,0,1-1.977-2.592c-1.178-3.243.633-7.135.709-7.3l.038.018c.114.486.228,1.006.34,1.535A8.841,8.841,0,0,0,70.105,408a4.47,4.47,0,0,0,1.167,1.767" transform="translate(-24.691 -140.988)" fill="#171717"/>
    <path id="Path_29090" data-name="Path 29090" d="M61.885,414.857c-.025,1.1-.112,1.849-.112,1.849H42.737a10.685,10.685,0,0,1-.022-1.849Z" transform="translate(-15.307 -145.856)" fill="#171717"/>
    <path id="Path_29091" data-name="Path 29091" d="M59.094,400.1a.553.553,0,0,1-.137-.017,9.314,9.314,0,0,0-4.413-.092.542.542,0,0,1-.668-.383.549.549,0,0,1,.378-.675,10.31,10.31,0,0,1,4.974.087.549.549,0,0,1-.135,1.08" transform="translate(-19.312 -140.168)" fill="#fff"/>
    <path id="Path_29092" data-name="Path 29092" d="M59.557,396.906a.543.543,0,0,1-.136-.017,9.326,9.326,0,0,0-4.414-.092.541.541,0,0,1-.668-.383.55.55,0,0,1,.378-.675,10.322,10.322,0,0,1,4.975.087.55.55,0,0,1,.389.669.544.544,0,0,1-.525.411" transform="translate(-19.478 -139.044)" fill="#fff"/>
    <path id="Path_29093" data-name="Path 29093" d="M57.826,402.785a.548.548,0,0,1-.136-.017,9.417,9.417,0,0,0-4.414-.092.542.542,0,0,1-.666-.384.548.548,0,0,1,.378-.674,10.332,10.332,0,0,1,4.975.087.55.55,0,0,1,.389.669.544.544,0,0,1-.525.411" transform="translate(-18.858 -141.111)" fill="#fff"/>
    <path id="Path_29094" data-name="Path 29094" d="M56.334,405.833a.547.547,0,0,1-.137-.017,9.417,9.417,0,0,0-4.414-.092.542.542,0,0,1-.667-.384.549.549,0,0,1,.378-.674,10.323,10.323,0,0,1,4.975.087.549.549,0,0,1,.389.669.543.543,0,0,1-.524.411" transform="translate(-18.323 -142.183)" fill="#fff"/>
    <path id="Path_29095" data-name="Path 29095" d="M32.6,204.648a.036.036,0,0,1,0,.012.169.169,0,0,0,.005.038c.031.332.062.671.092,1.015a8.081,8.081,0,0,0,4.209-.381,13.563,13.563,0,0,0,6.111-5.235,25.459,25.459,0,0,0,1.725-2.906,24.781,24.781,0,0,0,1.208-2.737.514.514,0,0,0-.307-.655.5.5,0,0,0-.648.311,26.2,26.2,0,0,1-2.847,5.427,12.516,12.516,0,0,1-5.59,4.833,7.131,7.131,0,0,1-3.959.28" transform="translate(-11.689 -68.125)" fill="#0e0e0e"/>
    <path id="Path_29096" data-name="Path 29096" d="M74.351,137.015c-.466.438-.965.87-1.493,1.286-.124.1-.254.2-.385.3a28.273,28.273,0,0,1-2.768,1.858c-.14.084-.284.168-.427.25a44.1,44.1,0,0,1-13.41,4.8q-1.756.339-3.573.562c-1.364.168-2.754.282-4.153.343q-1.548.063-3.119.035c-.214,0-.427-.009-.641-.016a44.4,44.4,0,0,1-17.952-4.23c-.072-.033-.143-.068-.217-.105-.039-.114-.083-.233-.122-.359-1.147-3.5-2.348-11.774-3.213-18.757-.021-.158-.04-.32-.058-.478-.381-3.087-.695-5.89-.9-7.87-.019-.184-.037-.362-.053-.53-.037-.327-.067-.623-.092-.889q-.163-1.634-.267-3.269a144.879,144.879,0,0,1-.019-16.058l.042-.9c0-.086.009-.171.013-.259.01-.169.019-.337.026-.5.081-1.547.171-3.112.27-4.7.009-.161.019-.322.03-.485v0c.028-.445.055-.891.083-1.342.014-.222.028-.445.042-.669.129-2.054.266-4.151.4-6.3.485-7.749,2.592-13.174,6.2-15.607.162-.112.328-.215.5-.311h0a8.319,8.319,0,0,1,2.874-1.017l.332-.056c.16-.026.314-.056.466-.084a23.416,23.416,0,0,0,3.975-1.129c.124-.047.247-.1.364-.145q.236-.094.457-.191c.237-.1.464-.206.681-.308.189-.089.367-.178.54-.268a17.728,17.728,0,0,0,2.872-1.794L53.81,57.7a11.418,11.418,0,0,0,4.472,3.444c.162.075.328.152.5.226.247.11.5.21.75.3.6.226,1.2.42,1.8.6.166.051.334.1.5.147,3.568,1.031,6.931,1.743,7.771,6.01.4,2.054-.358,5.4-.986,10.815-.023.212-.046.422-.071.639-.108.98-.21,2.023-.3,3.14-.017.189-.03.376-.046.569-.206,2.805-.326,6.027-.257,9.739q.031,1.579.108,3.28.076,1.593.2,3.293.117,1.585.282,3.264c.1.982.205,1.988.332,3.022.078.648.157,1.307.247,1.978v0c.025.182.051.366.078.553.03.238.065.479.1.718.134.952.3,2.107.505,3.4.023.156.051.32.074.483.238,1.533.512,3.252.813,5.063.03.163.058.324.083.49.581,3.463,1.255,7.238,1.947,10.726.04.21.083.418.125.626.5,2.506,1.015,4.839,1.5,6.778" transform="translate(-7.628 -20.286)" fill="#171717"/>
    <path id="Path_29097" data-name="Path 29097" d="M77.329,163.411a1.09,1.09,0,1,1-1.09-1.1,1.1,1.1,0,0,1,1.09,1.1" transform="translate(-26.947 -57.065)" fill="#0e0e0e"/>
    <path id="Path_29098" data-name="Path 29098" d="M77.929,172.211a1.09,1.09,0,1,1-1.09-1.1,1.1,1.1,0,0,1,1.09,1.1" transform="translate(-27.162 -60.159)" fill="#0e0e0e"/>
    <path id="Path_29099" data-name="Path 29099" d="M78.729,181.011a1.09,1.09,0,1,1-1.09-1.1,1.1,1.1,0,0,1,1.09,1.1" transform="translate(-27.449 -63.253)" fill="#0e0e0e"/>
    <path id="Path_29100" data-name="Path 29100" d="M30.324,158.665a.385.385,0,0,1-.374-.3c-4.959-20.954-3.362-45.649-3.345-45.9a.385.385,0,1,1,.768.053c-.017.246-1.605,24.825,3.326,45.661a.39.39,0,0,1-.285.469.365.365,0,0,1-.09.011" transform="translate(-9.448 -39.415)" fill="#0e0e0e"/>
    <path id="Path_29101" data-name="Path 29101" d="M63.555,61.909l-3.207,5.965,5.131,5.447,2.694-5.965Z" transform="translate(-21.64 -21.766)" fill="#4e52ac"/>
    <path id="Path_29102" data-name="Path 29102" d="M65.748,74.357l.128,43.444L73.7,129.343l4.746-12.709L68.057,73.709Z" transform="translate(-23.576 -25.915)" fill="#4e52ac"/>
    <path id="Path_29103" data-name="Path 29103" d="M44.514,20.034a2.377,2.377,0,0,0-2.042-1.183,2.419,2.419,0,0,1-2.616-1.887s-2.866-1.418-2.335-3.635,2.974-2.057,3.143-3.344-.783-6.265,6.033-5.4c0,0,1.315-4.811,5.066-3.8s6,.724,7.49-.169c0,0,2.531-1.945,4.746,1.056s-.368,5.772-.368,5.772,3.214,1.128,3.159,3.87S62.744,13.7,62.744,13.7s1.616,1.751-.137,2.93-1.99,1.919-1.99,1.919Z" transform="translate(-13.431 0)" fill="#2c2c2c"/>
    <path id="Path_29104" data-name="Path 29104" d="M69.772,30.117s.568-3.4,3.3-3.035,4.055,9.185-.979,9.619Z" transform="translate(-25.019 -9.512)" fill="#de766b"/>
    <path id="Path_29105" data-name="Path 29105" d="M51.675,52.134s-.524,1.178,4.5,2.089a10.47,10.47,0,0,0,7.195-1.576,9.7,9.7,0,0,0,.935-.759,13.771,13.771,0,0,1-.591-6.786c.021-.092.034-.139.034-.139l-13.362-5.22Z" transform="translate(-18.069 -13.973)" fill="#fd9680"/>
    <path id="Path_29106" data-name="Path 29106" d="M53.941,47.293S57.8,55.534,64.648,55.3a9.75,9.75,0,0,0,.935-.759,13.762,13.762,0,0,1-.591-6.786Z" transform="translate(-19.342 -16.627)" fill="#2c2c2c"/>
    <path id="Path_29107" data-name="Path 29107" d="M57.073,39.26c5.356.488,9.308-2.23,9.347-6.834.011-1.11-.093-2.7-.241-4.363,0-.017,0-.033,0-.051-.032-.351-.066-.708-.1-1.063-.024-.257-.051-.514-.078-.768-.3-2.953-.66-5.62-.66-5.62-1.5-7.255-8.964-9.238-14.433-5.854s-2.344,12.079-1.881,16.436a8.7,8.7,0,0,0,8.05,8.116" transform="translate(-17.111 -4.607)" fill="#fd9680"/>
    <path id="Path_29108" data-name="Path 29108" d="M47.606,23.407a3.94,3.94,0,0,1,2.359,2.517c.391,1.794,2.314-.1.722-1.954s1.01-1.984,1.264-3.494-2.167-1.366-.9-3.205,3.555.82,6.131.063-.321-2.454,1.239-2.3,7.061,4.738,6.009,1.954a9.3,9.3,0,0,0-12-4.662c-6.115,2.48-5.6,7.936-4.824,11.083" transform="translate(-16.906 -4.074)" fill="#2c2c2c"/>
    <path id="Path_29109" data-name="Path 29109" d="M47.635,30.8s-1.75-2.3-4.1-.85-.069,10.058,4.715,8.414Z" transform="translate(-15.276 -10.363)" fill="#fd9680"/>
    <path id="Path_29110" data-name="Path 29110" d="M53.693,35.924a.4.4,0,0,0,.517-.252.411.411,0,0,0-.249-.523c-3.981-1.408-4.924-5.683-4.933-5.726a.4.4,0,0,0-.481-.316.409.409,0,0,0-.312.486,9.041,9.041,0,0,0,5.458,6.329" transform="translate(-17.293 -10.231)" fill="#d8d8d6"/>
    <path id="Path_29111" data-name="Path 29111" d="M56.919,45.843a.411.411,0,0,0-.091-.814c-4.344.223-7.763-2.9-7.8-2.935a.4.4,0,0,0-.573.025.412.412,0,0,0,.023.579,12.537,12.537,0,0,0,8.388,3.151.407.407,0,0,0,.05-.006" transform="translate(-17.338 -14.762)" fill="#d8d8d6"/>
    <path id="Path_29112" data-name="Path 29112" d="M64.927,32.194a2.041,2.041,0,0,0-2.056-.3,13.318,13.318,0,0,0-2.263,2.358c-1.654,1.83-6.366,1.164-6.366,1.164s-1.156,5.824,1.062,8.3,7.469,2.513,9.561,1.474a6.264,6.264,0,0,0,3.663-6.268l-.146-3.413a1.145,1.145,0,0,0-.358-.786,26.205,26.205,0,0,0-3.1-2.526" transform="translate(-19.343 -11.156)" fill="#fff"/>
    <path id="Path_29113" data-name="Path 29113" d="M64.284,41.034a10.828,10.828,0,0,1-1.98-.027,15.063,15.063,0,0,1-3.862-.925.259.259,0,0,1-.14-.337.254.254,0,0,1,.333-.142c.066.027,6.63,2.673,9.743-1.038a.253.253,0,0,1,.36-.03.259.259,0,0,1,.03.364,6.308,6.308,0,0,1-4.484,2.135" transform="translate(-20.899 -13.527)" fill="#d8d8d6"/>
    <path id="Path_29114" data-name="Path 29114" d="M64.571,44.528a10.827,10.827,0,0,1-1.98-.027,15.063,15.063,0,0,1-3.862-.925.259.259,0,0,1-.14-.337.254.254,0,0,1,.333-.142c.066.027,6.63,2.673,9.743-1.038a.253.253,0,0,1,.36-.03.259.259,0,0,1,.03.364,6.309,6.309,0,0,1-4.484,2.135" transform="translate(-21.002 -14.755)" fill="#d8d8d6"/>
    <path id="Path_29115" data-name="Path 29115" d="M64.807,47.387a10.827,10.827,0,0,1-1.98-.027,15.094,15.094,0,0,1-3.862-.925.259.259,0,0,1-.14-.337.254.254,0,0,1,.333-.142c.066.027,6.63,2.673,9.743-1.038a.253.253,0,0,1,.36-.03.259.259,0,0,1,.03.364,6.308,6.308,0,0,1-4.484,2.135" transform="translate(-21.087 -15.76)" fill="#d8d8d6"/>
    <path id="Path_29116" data-name="Path 29116" d="M50.538,53.472s-2.262,2.535-2.312,4.975c0,0,3.157,4.775,7.775,6.461L59.195,58.9s-5.911-2.472-8.657-5.431" transform="translate(-17.293 -18.8)" fill="#0e0e0e"/>
    <path id="Path_29117" data-name="Path 29117" d="M69.111,54.865s-.043,2.1-3.763,4.567l4.618,5.447a12.633,12.633,0,0,0,2.672-5.51s-.021-2.458-3.527-4.5" transform="translate(-23.433 -19.29)" fill="#0e0e0e"/>
    <path id="Path_29118" data-name="Path 29118" d="M93.429,185.664s3.707,9.866,5.9,11.977c0,0,5.727-8.686.022-13.973-1.823-1.689-5.923,2-5.923,2" transform="translate(-33.502 -64.418)" fill="#fd9680"/>
    <path id="Path_29119" data-name="Path 29119" d="M79.9,63.06a56.461,56.461,0,0,1,6.818,19.962c1.982,13.322,3.424,27.034,3.424,27.034s2.836-21.371,1.239-33.369S85.224,63.073,79.9,63.06" transform="translate(-28.652 -22.171)" fill="#2c2c2c"/>
    <path id="Path_29120" data-name="Path 29120" d="M30.685,63.292S37.316,65.97,40.4,77.4c5.633,20.84-17.566,44.684-17.566,44.684-.185,3.809-.095,7.54,1.732,10.774,0,0,44.239-40.533,13.615-72.128,0,0-5.043-1.141-7.5,2.565" transform="translate(-8.166 -21.292)" fill="#2c2c2c"/>
    <path id="Path_29121" data-name="Path 29121" d="M71.39,89.476l1.3,34.094a.677.677,0,0,1-.646.705L48.37,125.2a.675.675,0,0,1-.7-.653l-1.3-34.094a.676.676,0,0,1,.646-.7l23.675-.923a.675.675,0,0,1,.7.653" transform="translate(-16.628 -31.228)" fill="#4e52ac"/>
    <path id="Path_29122" data-name="Path 29122" d="M66.29,102.471l-9.137.356a1.95,1.95,0,0,1-2.015-1.885l0-.054A1.954,1.954,0,0,1,57,98.851l9.138-.356a1.949,1.949,0,0,1,2.014,1.886l0,.054a1.953,1.953,0,0,1-1.865,2.037" transform="translate(-19.77 -34.629)" fill="#f2f2f0"/>
    <path id="Path_29123" data-name="Path 29123" d="M83.408,89.476l1.3,34.094a.677.677,0,0,1-.646.705l-2.824.11L79.886,88.933l2.824-.11a.675.675,0,0,1,.7.653" transform="translate(-28.646 -31.228)" fill="#393c8c"/>
    <path id="Path_29124" data-name="Path 29124" d="M36.624,107.685a33.746,33.746,0,0,1-2.448-5.771c-.35.2-1.935,1.277-2.287,1.477-1.255.708-2.72,1.408-4,2.046a55.714,55.714,0,0,1-7.7,2.708,29.969,29.969,0,0,1-3.656.983,16.578,16.578,0,0,1-1.7.246l.022-.066c.463-1.286,1-2.627,1.561-3.975.756-1.8,1.568-3.622,2.41-5.444q.623-1.36,1.273-2.717c.165-.346.332-.694.5-1.04q1.72-3.571,3.537-7.13,1.037-2.035,2.1-4.059l1.066-2.02,1.063-1.984.055-.1c.046-.087.091-.171.133-.261a7.759,7.759,0,0,0-3.5-10.327,7.6,7.6,0,0,0-10.216,3.539l-1.047,2.161-1.016,2.137q-1.012,2.144-2,4.293-1.984,4.3-3.884,8.669c-.082.191-.164.38-.245.572q-.429,1-.851,2c-.876,2.087-1.731,4.2-2.55,6.375-.579,1.538-1.138,3.1-1.665,4.758-.263.831-.52,1.686-.758,2.6a28.94,28.94,0,0,0-.644,3.079c-.042.306-.085.625-.114.986S0,112.166,0,112.627a10.929,10.929,0,0,0,.123,1.686c.03.188.063.37.1.564.053.222.1.418.171.656.036.124.076.249.121.371l.064.185.083.211c.056.141.118.281.182.42s.155.314.239.468a8.074,8.074,0,0,0,.64.984c.126.17.284.357.436.524.076.087.155.17.236.252l.067.064c.14.135.281.271.428.4.292.259.6.511.906.742a14.051,14.051,0,0,0,1.949,1.223,14.959,14.959,0,0,0,3.952,1.36,18.158,18.158,0,0,0,3.589.34,26.759,26.759,0,0,0,6.069-.763,41.349,41.349,0,0,0,5.079-1.922,66.567,66.567,0,0,0,8.762-4.28c1.452-.79,2.951-1.805,4.353-2.659.36-.219,2.722-1.786,3.08-2.01-1.325-1.421-3.032-2.129-4.009-3.761" transform="translate(0 -24.422)" fill="#fd9680"/>
    <path id="Path_29125" data-name="Path 29125" d="M59.738,121.784c10.006-3.242,14.724-7.194,15.81-8.649a2.419,2.419,0,0,0-.212-2.937,2.157,2.157,0,0,0-.534-2.566c1.078-2.44-.509-3.232-.509-3.232s2.077-1.873.752-3.075-3.627,1.932-5.626,2.778c-.095.04-.195.08-.306.121.859-1.168,1.727-2.707,1.324-3.758-.733-1.908-7.236,5.74-7.236,5.74-1.328,1-3.635,3.21-5.687,4.767-.782.593-3.529,1.621-4.233,2.147l.185.849Z" transform="translate(-19.106 -35.215)" fill="#fd9680"/>
    <path id="Path_29126" data-name="Path 29126" d="M23.831,108.147c-.166.346-.332.694-.5,1.041q-.646,1.357-1.273,2.716L9.024,105.638q.421-1,.851-2Z" transform="translate(-3.236 -36.437)" fill="#ec715a"/>
    <path id="Path_29127" data-name="Path 29127" d="M14.292,133.677a.344.344,0,0,1-.294-.165.351.351,0,0,1,.11-.482,25.716,25.716,0,0,1,5.317-2.247.347.347,0,0,1,.43.238.351.351,0,0,1-.235.434,25.547,25.547,0,0,0-5.145,2.169.336.336,0,0,1-.183.053" transform="translate(-5.001 -45.976)" fill="#ec715a"/>
    <path id="Path_29128" data-name="Path 29128" d="M19.686,131.067a.345.345,0,0,1-.187-.056,7.152,7.152,0,0,0-3.736-.663.35.35,0,0,1-.063-.7,7.7,7.7,0,0,1,4.173.771.352.352,0,0,1,.1.484.344.344,0,0,1-.291.161" transform="translate(-5.517 -45.574)" fill="#ec715a"/>
    <path id="Path_29129" data-name="Path 29129" d="M61.627,127.36a3.914,3.914,0,0,1-2.385,1.435c-.043,0-.087.007-.128.008-4.066-3.53-6.231-9.926-6.231-9.926.07-.117.145-.229.223-.335a3.551,3.551,0,0,1,2.119-1.362l.018.052a25.618,25.618,0,0,0,6.3,10.05l.084.077" transform="translate(-18.963 -41.199)" fill="#2c2c2c"/>
    <path id="Path_29130" data-name="Path 29130" d="M58.452,121.273a3.626,3.626,0,0,1-1.227,4.939,3.542,3.542,0,0,1-4.948-.958,3.627,3.627,0,0,1,1.228-4.939,3.541,3.541,0,0,1,4.947.958" transform="translate(-18.56 -42.086)" fill="#2c2c2c"/>
    <path id="Path_29131" data-name="Path 29131" d="M57.268,125.926a2.552,2.552,0,0,1-3.561-.689,2.614,2.614,0,0,1,.883-3.555,2.552,2.552,0,0,1,3.561.69,2.613,2.613,0,0,1-.883,3.555" transform="translate(-19.125 -42.627)" fill="#fff"/>
    <path id="Path_29132" data-name="Path 29132" d="M33.045,75.081c.039.277.065.562.08.857.369,7.371-8.493,22.123-8.493,22.123L23.5,97.609l-.448-.18L15.57,94.416l-.459-.185L6.9,90.927a47.682,47.682,0,0,1,2.7-6.592c.131-.282.27-.574.418-.881.912-1.928,2.108-4.385,3.7-7.621a18.94,18.94,0,0,1,3.3-4.987c.118-.121.237-.24.358-.352A13.293,13.293,0,0,1,19.63,68.8a8.9,8.9,0,0,1,9.293-.082,22.885,22.885,0,0,1,4.121,6.361" transform="translate(-2.475 -23.715)" fill="#171717"/>
    <path id="Path_29133" data-name="Path 29133" d="M26.326,106.309a.379.379,0,0,1-.144-.029L8.665,99.125a.391.391,0,0,1-.212-.507.383.383,0,0,1,.5-.215L26.47,105.56a.391.391,0,0,1,.213.506.386.386,0,0,1-.357.243" transform="translate(-3.021 -34.587)" fill="#0e0e0e"/>
    <path id="Path_29134" data-name="Path 29134" d="M34.893,104.818a.377.377,0,0,1-.214-.066.391.391,0,0,1-.106-.539c.065-.1,6.559-9.97,7.42-16.553a.385.385,0,1,1,.763.1c-.884,6.764-7.272,16.474-7.543,16.884a.385.385,0,0,1-.32.172" transform="translate(-12.374 -30.7)" fill="#0e0e0e"/>
    <path id="Path_29135" data-name="Path 29135" d="M229.739,413.3c0,2.865-17.912,5.187-40.007,5.187s-40.008-2.323-40.008-5.187,17.912-5.187,40.008-5.187,40.007,2.323,40.007,5.187" transform="translate(-53.688 -143.484)" fill="#d8d8d6"/>
    <path id="Path_29136" data-name="Path 29136" d="M177.606,63.989s-21.964-.156-23.714,17.068,3.512,55.985,24.344,52.165c22.724-4.166-.63-69.233-.63-69.233" transform="translate(-55.071 -22.497)" fill="#2c2c2c"/>
    <path id="Path_29137" data-name="Path 29137" d="M166.36,69.735l-1.455.069a12.2,12.2,0,0,1,.458-3.582,6.178,6.178,0,0,1,4.433-4.7,5.059,5.059,0,0,1,4.125.525,5.614,5.614,0,0,1,2.194,3.418l-1.434.26a4.163,4.163,0,0,0-1.566-2.452,3.7,3.7,0,0,0-2.978-.32c-3.987.971-3.78,6.719-3.777,6.777" transform="translate(-59.13 -21.56)" fill="#2c2c2c"/>
    <path id="Path_29138" data-name="Path 29138" d="M256.074,98.475l-1.572.567-1.611.562q-1.615.555-3.235,1.077c-2.156.692-4.316,1.34-6.424,1.88-1.052.268-2.093.51-3.078.7-.491.093-.969.172-1.408.228a9.732,9.732,0,0,1-1.119.091c-.04,0-.062,0-.092,0a.612.612,0,0,1-.076,0l-.056,0a.088.088,0,0,0-.021-.006c-.006,0,0,0,0,0h.035l.045,0,.046.006c.029,0,.058.007.086.012s.057.011.085.018a3.975,3.975,0,0,1,.434.121,4.519,4.519,0,0,1,1.019.477,3.516,3.516,0,0,1,.371.268c.124.1.109.093.071.035-.092-.13-.3-.439-.5-.792s-.43-.772-.651-1.209c-.444-.878-.885-1.849-1.313-2.845s-.845-2.031-1.251-3.077c-.813-2.1-1.587-4.252-2.334-6.428s-1.466-4.379-2.163-6.592q-.522-1.658-1.028-3.324l-.5-1.663-.478-1.637-.022-.077a6.818,6.818,0,0,0-8.484-4.663,6.916,6.916,0,0,0-4.613,8.577c.024.082.059.191.086.272l.591,1.751.593,1.718q.6,1.713,1.212,3.418,1.232,3.412,2.55,6.813c.885,2.269,1.8,4.537,2.8,6.817.5,1.141,1.015,2.284,1.568,3.439s1.139,2.32,1.813,3.526c.339.6.7,1.22,1.115,1.866a20.413,20.413,0,0,0,1.536,2.1,12.322,12.322,0,0,0,1.285,1.319,9.375,9.375,0,0,0,1.068.809,7.82,7.82,0,0,0,1.8.873c.209.068.436.132.645.182l.3.061.3.055.264.036.263.032c.091.011.158.015.239.022l.233.017c.079.006.156.01.223.012l.419.011.383,0c.132,0,.244-.006.363-.012s.241-.01.348-.018a22.235,22.235,0,0,0,2.376-.3c.72-.127,1.394-.272,2.05-.425,1.309-.309,2.541-.656,3.75-1.02,2.41-.731,4.718-1.535,7-2.378q1.71-.633,3.4-1.3l1.689-.672.845-.344.868-.36a5.731,5.731,0,0,0,3.085-7.448,5.629,5.629,0,0,0-7.112-3.217Z" transform="translate(-77.437 -25.281)" fill="#171717"/>
    <path id="Path_29139" data-name="Path 29139" d="M272.183,127.268a.317.317,0,0,1-.225-.093,14.557,14.557,0,0,1-4.047-10.69.321.321,0,1,1,.639.052,14.158,14.158,0,0,0,3.858,10.176.326.326,0,0,1,0,.458.319.319,0,0,1-.228.1" transform="translate(-96.061 -40.849)" fill="#0e0e0e"/>
    <path id="Path_29140" data-name="Path 29140" d="M270.637,126.744a.321.321,0,0,1-.3-.2.325.325,0,0,1,.178-.421c2.113-.857,4.721-1.856,4.748-1.867a.319.319,0,0,1,.413.189.325.325,0,0,1-.186.418c-.026.01-2.629,1.008-4.736,1.862a.323.323,0,0,1-.119.023" transform="translate(-96.931 -43.677)" fill="#0e0e0e"/>
    <path id="Path_29141" data-name="Path 29141" d="M276.983,129.29a.465.465,0,0,0-.167-.632.454.454,0,0,0-.624.169.466.466,0,0,0,.166.632.455.455,0,0,0,.625-.169" transform="translate(-99.016 -45.212)" fill="#0e0e0e"/>
    <path id="Path_29142" data-name="Path 29142" d="M246.777,124.178a.31.31,0,0,1-.257,0,.319.319,0,0,1-.154-.421,12.928,12.928,0,0,1,2.952-3.321.312.312,0,0,1,.442.047.32.32,0,0,1-.047.447,12.6,12.6,0,0,0-2.776,3.092.312.312,0,0,1-.159.158" transform="translate(-88.332 -42.318)" fill="#0e0e0e"/>
    <path id="Path_29143" data-name="Path 29143" d="M248.7,122.009a.31.31,0,0,1-.151.025,6.422,6.422,0,0,0-2.063.511.313.313,0,0,1-.409-.176.317.317,0,0,1,.174-.413,6.944,6.944,0,0,1,2.347-.554.318.318,0,0,1,.1.608" transform="translate(-88.232 -42.681)" fill="#0e0e0e"/>
    <path id="Path_29144" data-name="Path 29144" d="M279.861,118.709s5.832,1.3,8.764-1c3.287-2.579.747-11.2-.881-13.183-2.036-2.481-6.322.367-6.322.367s-1.166-5.471-2.7-5.113c-1.994.465-1.26,5.964-3.02,8.808a5.534,5.534,0,0,0-.707,3.292,7.321,7.321,0,0,0,4.863,6.834" transform="translate(-98.604 -35.073)" fill="#fd9680"/>
    <path id="Path_29145" data-name="Path 29145" d="M287.531,121.692a.357.357,0,0,1,.176-.3,11.8,11.8,0,0,1,4.823-1.569.356.356,0,0,1,0,.711,11.3,11.3,0,0,0-4.47,1.474.349.349,0,0,1-.48-.13.358.358,0,0,1-.047-.191" transform="translate(-103.103 -42.129)" fill="#de766b"/>
    <path id="Path_29146" data-name="Path 29146" d="M285.428,117.171a.355.355,0,0,1,.153-.28,9.7,9.7,0,0,1,5.364-1.5.354.354,0,0,1,.341.366v0a.354.354,0,0,1-.362.342,9.16,9.16,0,0,0-4.947,1.374.349.349,0,0,1-.488-.094.356.356,0,0,1-.061-.213" transform="translate(-102.349 -40.569)" fill="#de766b"/>
    <path id="Path_29147" data-name="Path 29147" d="M284.781,112.131a.356.356,0,0,1,.15-.278,8.647,8.647,0,0,1,4.873-1.332.354.354,0,0,1,.342.365.348.348,0,0,1-.361.346,8.089,8.089,0,0,0-4.453,1.2.349.349,0,0,1-.489-.089.355.355,0,0,1-.063-.216" transform="translate(-102.117 -38.856)" fill="#de766b"/>
    <path id="Path_29148" data-name="Path 29148" d="M279.313,119.589a.356.356,0,0,1,.256-.329,5.624,5.624,0,0,0,3.315-3.113.35.35,0,0,1,.455-.2.356.356,0,0,1,.2.46,6.242,6.242,0,0,1-3.779,3.54.351.351,0,0,1-.434-.246.362.362,0,0,1-.013-.11" transform="translate(-100.157 -40.756)" fill="#de766b"/>
    <path id="Path_29149" data-name="Path 29149" d="M284.671,112.118a9.74,9.74,0,0,1,.541-2.884.351.351,0,0,1,.45-.215.356.356,0,0,1,.213.454c-1.849,5.252,2.042,10.6,2.081,10.657a.358.358,0,0,1-.071.5.349.349,0,0,1-.492-.071,14.823,14.823,0,0,1-2.722-8.439" transform="translate(-102.075 -38.322)" fill="#de766b"/>
    <path id="Path_29150" data-name="Path 29150" d="M215.1,125.5c-9.1,2.462-21.709,3.52-39.132,2.644a128.967,128.967,0,0,0-1.644-21.579c-.239-1.612-.645-3.562-1.192-5.707-.191-.757-.4-1.539-.623-2.338s-.457-1.591-.707-2.406q-.353-1.155-.744-2.338-.247-.754-.51-1.514c-.1-.3-.206-.594-.312-.892-.018-.051-.038-.1-.056-.156-.08-.228-.161-.454-.245-.68-.183-.5-.369-1-.558-1.5-.448-1.179-.915-2.347-1.4-3.485-3-7.066-3.484-15.03,3.731-17.461.525-.178,1.042-.348,1.545-.508,3.412-1.089,6.256-1.806,7.047-2l.217-.054L195.667,66.8l1.442.119a51.723,51.723,0,0,1,5.26.819,16.1,16.1,0,0,1,3.076.96c3.589,1.609,3.612,4.254,4.541,9.3.017.086.031.172.048.261.005.029.012.058.016.087q.244,1.285.578,2.542c.244.938.517,1.863.8,2.768.6,1.9,1.254,3.707,1.825,5.384.278.812.535,1.594.757,2.338a23.344,23.344,0,0,1,.6,2.406,8.52,8.52,0,0,1,.147,2.338,4.36,4.36,0,0,1-.133.737,11.425,11.425,0,0,1-.609,1.669,16.549,16.549,0,0,1-1.307,2.338,22.47,22.47,0,0,1-2.141,2.734c-.194.211-.309.324-.309.324s0,.032,0,.048c.012.126.028.258.045.4.065.532.156,1.165.273,1.88A169.35,169.35,0,0,0,215.1,125.5" transform="translate(-59.494 -23.039)" fill="#171717"/>
    <path id="Path_29151" data-name="Path 29151" d="M234.876,112.665a.319.319,0,0,1-.208-.078.327.327,0,0,1-.035-.457c.04-.047,3.941-4.669,4.507-7.148.42-1.841-.974-6.094-2.2-9.846-.677-2.062-1.315-4.009-1.6-5.4a.321.321,0,1,1,.628-.132c.28,1.358.913,3.288,1.584,5.332,1.318,4.02,2.682,8.178,2.221,10.2-.6,2.634-4.48,7.23-4.644,7.424a.318.318,0,0,1-.244.113" transform="translate(-84.107 -31.411)" fill="#0e0e0e"/>
    <path id="Path_29152" data-name="Path 29152" d="M200.772,126.473a.349.349,0,0,0,.3.176.337.337,0,0,0,.173-.045,19.986,19.986,0,0,1,12.687-1.9,21.636,21.636,0,0,0,8.854.1c-.017-.14-.033-.272-.046-.4,0-.018,0-.034-.005-.049,0,0,.115-.113.309-.324a20.615,20.615,0,0,1-8.978-.023,20.318,20.318,0,0,0-13.17,1.984.354.354,0,0,0-.129.482" transform="translate(-71.977 -43.473)" fill="#0e0e0e"/>
    <path id="Path_29153" data-name="Path 29153" d="M205.213,90.015c4.43,0,5.4-4.829,5.41-4.878a.353.353,0,0,0-.277-.414.348.348,0,0,0-.409.28c-.035.182-.877,4.3-4.723,4.3-4.035,0-12.813-6.23-12.9-6.293a.346.346,0,0,0-.487.085.355.355,0,0,0,.084.492c.368.262,9.049,6.423,13.3,6.423" transform="translate(-68.762 -29.164)" fill="#0e0e0e"/>
    <path id="Path_29154" data-name="Path 29154" d="M182.4,13.186c5.336-1.941,11.668-1.726,15.837,2.161a13.4,13.4,0,0,1,4.183,8.646c.591,9.169,1.414,10.262,4.686,17.957,0,0-23.61,6.006-32.595.9a143.235,143.235,0,0,0,.548-16.588c-.25-7.117,2.824-11.43,7.341-13.073" transform="translate(-62.578 -4.215)" fill="#2c2c2c"/>
    <path id="Path_29155" data-name="Path 29155" d="M182.564,12.738s-2.3-9.659-10.44-6.082-1.947,14.49,4.07,12.7,6.37-6.618,6.37-6.618" transform="translate(-60.321 -2.061)" fill="#2c2c2c"/>
    <path id="Path_29156" data-name="Path 29156" d="M203.689,61.65c-2.351,8.186-12.76.806-13.452-1.189a24.735,24.735,0,0,0-1.3-9.963l12.713,1.63c.048.354.095.71.143,1.067a48.1,48.1,0,0,0,.871,5.071c.2.827.718,2.527,1.022,3.383" transform="translate(-67.751 -17.755)" fill="#fd9680"/>
    <path id="Path_29157" data-name="Path 29157" d="M203.678,59.466c-6.489-.009-11.918-5.556-11.918-5.556l11.046.485a48.26,48.26,0,0,0,.872,5.071" transform="translate(-68.762 -18.954)" fill="#2c2c2c"/>
    <path id="Path_29158" data-name="Path 29158" d="M209.769,36.858s.26-3.134,2.764-3.009,4.372,8.026-.165,8.807Z" transform="translate(-75.22 -11.899)" fill="#de766b"/>
    <path id="Path_29159" data-name="Path 29159" d="M209.093,49.109a4.075,4.075,0,0,1,2.391-5.2,4.006,4.006,0,0,1,5.147,2.417,4.074,4.074,0,0,1-2.39,5.2,4.006,4.006,0,0,1-5.148-2.417m.563-.208a3.408,3.408,0,0,0,4.38,2.056,3.467,3.467,0,0,0,2.034-4.427,3.409,3.409,0,0,0-4.38-2.056,3.467,3.467,0,0,0-2.034,4.427" transform="translate(-74.89 -15.349)" fill="#fff"/>
    <path id="Path_29160" data-name="Path 29160" d="M187.112,40.269c1.957,2.867,10.937,4.6,13.9,2.229,1.8-1.437,3.139-3.774,3.138-8.225,0-.023,0-.047,0-.071,0-.263,0-.521-.013-.776-.012-.46-.036-.906-.069-1.331-.008-.1-.016-.2-.026-.3-.025-.263-.055-.516-.089-.759-.041-.3-.088-.582-.142-.844-.879-4.251-1.78-9.05-6.22-10.758s-10.55-.976-13.063,3.638c0,0-1.746,3.913-.182,9.986s1.347,5.136,2.762,7.207" transform="translate(-65.871 -6.538)" fill="#fd9680"/>
    <path id="Path_29161" data-name="Path 29161" d="M186.423,22.832s-.346,7.07-1.914,8.863-3.962-1.012-3.962-1.012,1.348-11.037,5.876-7.85" transform="translate(-64.741 -7.824)" fill="#2c2c2c"/>
    <path id="Path_29162" data-name="Path 29162" d="M196.49,19.439s-2.328,6.354-7.315,6.279-2.831-4.8-2.831-4.8,7.782-5.816,10.146-1.474" transform="translate(-66.653 -6.268)" fill="#2c2c2c"/>
    <path id="Path_29163" data-name="Path 29163" d="M200.081,18.659s4.077,6.427,8.342,4.052-3.9-7.656-6.887-6.594-1.455,2.542-1.455,2.542" transform="translate(-71.605 -5.618)" fill="#2c2c2c"/>
    <path id="Path_29164" data-name="Path 29164" d="M184.059,38.577s-1.941-2.15-4.175-.5.766,10.071,5.416,8.02Z" transform="translate(-64.233 -13.168)" fill="#fd9680"/>
    <path id="Path_29165" data-name="Path 29165" d="M186.247,33.36s3.106,7.3,1.219,7.027-3.528-4.724-3.528-4.724Z" transform="translate(-65.957 -11.729)" fill="#2c2c2c"/>
    <path id="Path_29166" data-name="Path 29166" d="M191.257,43.928a.4.4,0,0,0,.085-.788c-4.051-.447-5.859-4.263-5.877-4.3a.39.39,0,0,0-.521-.191.4.4,0,0,0-.189.527,8.672,8.672,0,0,0,6.5,4.754" transform="translate(-66.237 -13.575)" fill="#d8d8d6"/>
    <path id="Path_29167" data-name="Path 29167" d="M196.176,52.768a.4.4,0,0,0-.145-.777,11.508,11.508,0,0,1-7.718-2.266.39.39,0,0,0-.551.064.4.4,0,0,0,.063.556,12.091,12.091,0,0,0,8.3,2.432.382.382,0,0,0,.047-.009" transform="translate(-67.298 -17.452)" fill="#d8d8d6"/>
    <path id="Path_29168" data-name="Path 29168" d="M181.565,49.284c.176.13.3.281.474.409a3.475,3.475,0,0,0-1.46,4.558,3.411,3.411,0,0,0,3.864,1.843,3.462,3.462,0,0,0,2.412-4.543,3.425,3.425,0,0,0-2.664-2.22c-.768-.045-.945-.319-1.038-.619a4.018,4.018,0,0,1,4.266,2.632,4.075,4.075,0,0,1-2.391,5.2,4.006,4.006,0,0,1-5.148-2.417,4.14,4.14,0,0,1,1.686-4.847" transform="translate(-64.417 -17.115)" fill="#fff"/>
    <path id="Path_29169" data-name="Path 29169" d="M203.158,38.685a1.97,1.97,0,0,0-2-.142,12.9,12.9,0,0,0-2.014,2.434c-1.465,1.882-6.051,1.578-6.051,1.578s-.7,5.694,1.607,7.918,7.372,1.884,9.314.733a6.061,6.061,0,0,0,3.088-6.3l-.381-3.278a1.1,1.1,0,0,0-.4-.731,25.34,25.34,0,0,0-3.162-2.21" transform="translate(-69.203 -13.476)" fill="#fff"/>
    <path id="Path_29170" data-name="Path 29170" d="M202.969,47.228a10.445,10.445,0,0,1-1.91.117,14.522,14.522,0,0,1-3.786-.614.25.25,0,0,1-.158-.314.247.247,0,0,1,.311-.161c.065.022,6.575,2.1,9.313-1.7a.246.246,0,0,1,.345-.054.252.252,0,0,1,.054.349,6.106,6.106,0,0,1-4.169,2.378" transform="translate(-70.678 -15.629)" fill="#d8d8d6"/>
    <path id="Path_29171" data-name="Path 29171" d="M203.494,50.574a10.5,10.5,0,0,1-1.91.117,14.569,14.569,0,0,1-3.786-.613.251.251,0,0,1-.158-.314.247.247,0,0,1,.311-.161c.065.021,6.575,2.1,9.313-1.7a.246.246,0,0,1,.345-.054.252.252,0,0,1,.054.349,6.107,6.107,0,0,1-4.169,2.378" transform="translate(-70.866 -16.805)" fill="#d8d8d6"/>
    <path id="Path_29172" data-name="Path 29172" d="M203.924,53.311a10.445,10.445,0,0,1-1.91.117,14.507,14.507,0,0,1-3.785-.614.249.249,0,0,1,.152-.475c.065.022,6.575,2.1,9.313-1.7a.246.246,0,0,1,.345-.054.252.252,0,0,1,.054.349,6.106,6.106,0,0,1-4.169,2.378" transform="translate(-71.02 -17.768)" fill="#d8d8d6"/>
    <path id="Path_29173" data-name="Path 29173" d="M197.521,276.8c-.038.218-.075.437-.114.659-.1.572-.2,1.159-.3,1.758-.26,1.532-.523,3.151-.786,4.829H180.552l-.126-5.924-.1-4.579-.364-17.27-.031-1.485c0-.047,0-.095-.006-.141q-.323-9.487-.528-17.2c4.6,1.209,13.418,3.2,19.872,2.653-.761,7.288-1.337,12.543-1.337,12.543s2.43,7.427-.416,24.154" transform="translate(-64.33 -83.482)" fill="#fd9680"/>
    <path id="Path_29174" data-name="Path 29174" d="M181,300.173l.047,4.361.028,2.6.036,3.239.028,2.6.53,48.524c2.861.888,5.764,1.928,7.824-.148,0,0,3.332-27.489,6.277-47.769q.192-1.313.378-2.581c.164-1.1.326-2.177.485-3.217q.2-1.329.4-2.578c.221-1.4.435-2.71.641-3.929A108.017,108.017,0,0,0,181,300.173" transform="translate(-64.903 -105.535)" fill="#2c2c2c"/>
    <path id="Path_29175" data-name="Path 29175" d="M181.074,306.9l.028,2.6,15.558.645q.2-1.329.4-2.578Z" transform="translate(-64.93 -107.9)" fill="#171717"/>
    <path id="Path_29176" data-name="Path 29176" d="M181.174,315.9l.028,2.6,14.631.607q.192-1.313.378-2.581Z" transform="translate(-64.966 -111.064)" fill="#171717"/>
    <path id="Path_29177" data-name="Path 29177" d="M185.58,400.411v8.917H164.8a8.383,8.383,0,0,1,.581-1.625c2.042-4.309,7.36-7.033,7.36-7.033a1.771,1.771,0,0,1,.217-1.2,16.558,16.558,0,0,1,1.315-2.329c.712-1.092,1.4-2,1.4-2l8.013-.637a10.732,10.732,0,0,1,1.895,5.9" transform="translate(-59.095 -138.702)" fill="#171717"/>
    <path id="Path_29178" data-name="Path 29178" d="M181.676,395.421l-.158-1.222s-.927-1.415,0-1.76,4.99-.994,5.632-.346.684,1.513,1.326,1.469,1.226-1.509,1.226-1.509.7-.33.933,3.551Z" transform="translate(-64.941 -137.755)" fill="#171717"/>
    <path id="Path_29179" data-name="Path 29179" d="M186.769,398.735l-.264,2.011s-5.194-1.116-8.984-.012a16.556,16.556,0,0,1,1.315-2.329c1.854-.218,5.71-.709,7.933.331" transform="translate(-63.656 -139.963)" fill="#2c2c2c"/>
    <path id="Path_29180" data-name="Path 29180" d="M185.58,414.857v1.625H164.8a8.385,8.385,0,0,1,.581-1.625Z" transform="translate(-59.095 -145.856)" fill="#0e0e0e"/>
    <path id="Path_29181" data-name="Path 29181" d="M187.479,266.077a.71.71,0,0,1-.694.726h-.143a16.788,16.788,0,0,1-6.38-1.209l-.032-1.485c0-.046,0-.095-.005-.141,1.868,1.189,5.16,1.431,6.535,1.406h.012a.709.709,0,0,1,.706.7" transform="translate(-64.626 -92.807)" fill="#de766b"/>
    <path id="Path_29182" data-name="Path 29182" d="M238.11,254.786l-.031,1.485-.364,17.27-.1,4.579-.18,8.518h-15.31c-.4-2.616-.8-5.121-1.189-7.432q-.152-.895-.3-1.749c-.038-.222-.076-.441-.113-.659-2.845-16.727-.416-24.154-.416-24.154s-.576-5.255-1.338-12.543c6.455.55,15.276-1.445,19.872-2.653q-.206,7.723-.527,17.2c0,.047,0,.095-.006.141" transform="translate(-78.447 -83.482)" fill="#fd9680"/>
    <path id="Path_29183" data-name="Path 29183" d="M222.154,301.258c.208,1.228.423,2.556.643,3.963q.194,1.249.393,2.579c.156,1.04.313,2.115.472,3.217q.183,1.266.366,2.581c2.843,20.279,5.893,47.743,5.893,47.743l7.984,1.551.738-49.9.038-2.6.047-3.239.038-2.6.065-4.386a108.563,108.563,0,0,0-16.678,1.085" transform="translate(-79.661 -105.535)" fill="#2c2c2c"/>
    <path id="Path_29184" data-name="Path 29184" d="M223.156,307.6q.194,1.249.393,2.579l15.539-.645.038-2.6Z" transform="translate(-80.02 -107.913)" fill="#171717"/>
    <path id="Path_29185" data-name="Path 29185" d="M224.5,316.561q.183,1.266.366,2.581l14.615-.606.038-2.6Z" transform="translate(-80.503 -111.078)" fill="#171717"/>
    <path id="Path_29186" data-name="Path 29186" d="M231.309,400.411v8.917h20.777a8.381,8.381,0,0,0-.581-1.625c-2.042-4.309-7.36-7.033-7.36-7.033a1.771,1.771,0,0,0-.217-1.2,16.558,16.558,0,0,0-1.315-2.329c-.712-1.092-1.4-2-1.4-2l-8.013-.637a10.732,10.732,0,0,0-1.895,5.9" transform="translate(-82.943 -138.702)" fill="#171717"/>
    <path id="Path_29187" data-name="Path 29187" d="M241.5,395.421l.157-1.222s.928-1.415,0-1.76-4.989-.994-5.63-.346-.684,1.513-1.326,1.469-1.226-1.509-1.226-1.509-.7-.33-.933,3.551Z" transform="translate(-83.386 -137.755)" fill="#171717"/>
    <path id="Path_29188" data-name="Path 29188" d="M236.566,398.735l.264,2.011s5.194-1.116,8.984-.012A16.551,16.551,0,0,0,244.5,398.4c-1.854-.218-5.71-.709-7.933.331" transform="translate(-84.828 -139.963)" fill="#2c2c2c"/>
    <path id="Path_29189" data-name="Path 29189" d="M231.309,414.857v1.625h20.777a8.382,8.382,0,0,0-.581-1.625Z" transform="translate(-82.943 -145.856)" fill="#0e0e0e"/>
    <path id="Path_29190" data-name="Path 29190" d="M237.622,266.077a.71.71,0,0,0,.694.726h.143a16.786,16.786,0,0,0,6.38-1.209l.032-1.485c0-.046,0-.095.005-.141-1.868,1.189-5.16,1.431-6.535,1.406h-.012a.71.71,0,0,0-.706.7" transform="translate(-85.207 -92.807)" fill="#de766b"/>
    <path id="Path_29191" data-name="Path 29191" d="M167.245,206.58l-.513,2.85,8.338,3.8-.291,2.561,9.656,3.275v1.491c2.309,1.037,14.686,1.207,14.686,1.207l.024-1.532,13.322-1.771-.409-2.119,9.158-2.893-.775-2.726,6.841-2.421-1.019-3.631,4.011-1.816c-2.523-7.378-12.694-36.834-16.708-48.456-1.019-2.95-1.641-4.75-1.641-4.75-16.964,8.1-37.71,3.456-37.71,3.456l-1.2,4.583-11.968,45.676Z" transform="translate(-57.749 -52.615)" fill="#171717"/>
    <path id="Path_29192" data-name="Path 29192" d="M252.987,207.123a.322.322,0,0,1-.306-.226l-15.544-49.674a.326.326,0,0,1,.209-.407.32.32,0,0,1,.4.211L253.293,206.7a.326.326,0,0,1-.209.407.334.334,0,0,1-.1.015" transform="translate(-85.028 -55.128)" fill="#0e0e0e"/>
    <path id="Path_29193" data-name="Path 29193" d="M244.323,213.952a.321.321,0,0,1-.308-.234l-15.544-54.295a.325.325,0,0,1,.219-.4.319.319,0,0,1,.4.221l15.544,54.295a.323.323,0,0,1-.308.414" transform="translate(-81.921 -55.905)" fill="#0e0e0e"/>
    <path id="Path_29194" data-name="Path 29194" d="M170.473,210.284a.362.362,0,0,1-.058-.005.324.324,0,0,1-.257-.377l8.94-49.36a.321.321,0,1,1,.631.117l-8.94,49.36a.321.321,0,0,1-.315.266" transform="translate(-61.013 -56.35)" fill="#0e0e0e"/>
    <path id="Path_29195" data-name="Path 29195" d="M233.462,220.71a.322.322,0,0,1-.313-.255L220.663,162.7a.324.324,0,0,1,.245-.386.32.32,0,0,1,.382.247l12.486,57.753a.324.324,0,0,1-.245.386.315.315,0,0,1-.069.008" transform="translate(-79.123 -57.065)" fill="#0e0e0e"/>
    <path id="Path_29196" data-name="Path 29196" d="M182.443,217.365l-.033,0a.323.323,0,0,1-.286-.355l5.6-55.13a.321.321,0,1,1,.638.066l-5.6,55.13a.322.322,0,0,1-.319.291" transform="translate(-65.306 -56.811)" fill="#0e0e0e"/>
    <path id="Path_29197" data-name="Path 29197" d="M197.177,223.218h-.013a.323.323,0,0,1-.307-.338l2.544-61.126a.321.321,0,1,1,.641.027L197.5,222.907a.322.322,0,0,1-.32.311" transform="translate(-70.589 -56.76)" fill="#0e0e0e"/>
    <path id="Path_29198" data-name="Path 29198" d="M216.716,224.579a.323.323,0,0,1-.319-.29l-6.512-61.86a.321.321,0,1,1,.638-.069l6.512,61.86a.323.323,0,0,1-.285.357l-.035,0" transform="translate(-75.261 -56.981)" fill="#0e0e0e"/>
    <path id="Path_29199" data-name="Path 29199" d="M179.706,157.692c18.064,4.732,34.227-.647,40.552-3.289-1.019-2.95-1.641-4.75-1.641-4.75-16.964,8.1-37.71,3.456-37.71,3.456Z" transform="translate(-64.439 -52.615)" fill="#0e0e0e"/>
    <path id="Path_29200" data-name="Path 29200" d="M203.1,70.807l-3.189,5.976,5.149,5.43,2.675-5.975Z" transform="translate(-71.686 -24.895)" fill="#4e52ac"/>
    <path id="Path_29201" data-name="Path 29201" d="M205.327,83.251l.264,43.443,7.861,11.517,4.707-12.724L207.634,82.6Z" transform="translate(-73.627 -29.039)" fill="#4e52ac"/>
    <path id="Path_29202" data-name="Path 29202" d="M190.058,62.413s-2.254,2.542-2.3,4.982c0,0,3.172,4.765,7.8,6.436l3.188-5.976c0,.082-5.906-2.482-8.688-5.443" transform="translate(-67.328 -21.943)" fill="#0e0e0e"/>
    <path id="Path_29203" data-name="Path 29203" d="M208.635,63.745s-.037,2.1-3.749,4.58l4.636,5.432a12.631,12.631,0,0,0,2.654-5.519s-.028-2.457-3.541-4.492" transform="translate(-73.469 -22.412)" fill="#0e0e0e"/>
    <path id="Path_29204" data-name="Path 29204" d="M216.679,67.837a69.57,69.57,0,0,1,6.5,18.553c2.119,10.717,6.179,23.821,6.179,23.821s-.548-19.36-2.137-30.191-5.732-12.236-10.544-12.183" transform="translate(-77.697 -23.85)" fill="#2c2c2c"/>
    <path id="Path_29205" data-name="Path 29205" d="M175.248,112.167c2.561-7.349,6.236-19.282,1.793-28.444-4.664-9.619-9.985-10.85-9.985-10.85,1.5-3.739,6.015-3.879,6.015-3.879,21.908,19.629,10.178,39.743,2.89,52.517-1.178-2.514-1.1-4.589-.714-9.344" transform="translate(-59.903 -24.257)" fill="#2c2c2c"/>
    <path id="Path_29206" data-name="Path 29206" d="M181.938,155.816l-26.89,20.619a.667.667,0,0,1-.942-.13l-14.318-19.082a.684.684,0,0,1,.129-.953l26.891-20.619a.667.667,0,0,1,.942.13l14.318,19.082a.686.686,0,0,1-.13.953" transform="translate(-50.077 -47.644)" fill="#4e52ac"/>
    <path id="Path_29207" data-name="Path 29207" d="M182.776,159.059l-5.526-7.365a1.976,1.976,0,0,1,.373-2.749l.043-.033a1.927,1.927,0,0,1,2.72.378l5.526,7.365a1.977,1.977,0,0,1-.373,2.749l-.043.032a1.927,1.927,0,0,1-2.72-.377" transform="translate(-63.417 -52.214)" fill="#f2f2f0"/>
    <path id="Path_29208" data-name="Path 29208" d="M189.064,165.074l-26.89,20.619a.667.667,0,0,1-.942-.13l-1.709-2.277,27.962-21.441,1.709,2.276a.686.686,0,0,1-.13.953" transform="translate(-57.202 -56.902)" fill="#393c8c"/>
    <path id="Path_29209" data-name="Path 29209" d="M136,109.9l.006.152.017.3.01.152.013.136c.02.179.042.358.066.536s.055.32.085.479.063.3.1.447l.051.215.026.107.027.1.111.392c.038.134.077.244.116.367.079.246.16.467.243.689a20.872,20.872,0,0,0,1.051,2.325,38.056,38.056,0,0,0,2.274,3.774c.78,1.159,1.588,2.254,2.405,3.317,1.641,2.123,3.344,4.117,5.1,6.048.876.965,1.774,1.906,2.675,2.841q.684.694,1.375,1.382c.231.23.466.455.7.683l.355.341.372.351a4.292,4.292,0,0,0,6.112-.211,4.41,4.41,0,0,0,.406-5.458l-.058-.084-2.065-3.037c-.7-1.017-1.38-2.044-2.06-3.065-1.357-2.044-2.684-4.091-3.909-6.127-.617-1.015-1.2-2.032-1.737-3.027-.269-.5-.521-.991-.756-1.473s-.45-.951-.629-1.392c-.131-.324-.247-.636-.333-.905.044-.092.1-.2.152-.306.1-.189.207-.4.326-.614.241-.433.51-.9.8-1.375s.592-.961.906-1.449c.629-.978,1.291-1.973,1.974-2.967s1.378-1.995,2.087-2.993,1.427-2,2.147-3l2.18-3,2.2-3,2.209-3,.149-.2c-.191-6.063-2.8-9.72-6.489-12.288a6.468,6.468,0,0,0-1.689,1.475c-.216.268-.411.513-.612.769l-.6.759c-.4.506-.784,1.017-1.173,1.526-.781,1.016-1.539,2.049-2.3,3.08s-1.506,2.078-2.253,3.124l-1.113,1.577-1.1,1.593c-1.458,2.133-2.882,4.3-4.271,6.547-.691,1.126-1.377,2.268-2.047,3.457-.335.6-.667,1.2-1,1.83s-.659,1.274-.981,1.974c-.162.349-.323.712-.485,1.1s-.324.8-.487,1.27a13.9,13.9,0,0,0-.483,1.721,9.587,9.587,0,0,0-.187,1.383l-.006.108,0,.124,0,.247c0,.1,0,.129,0,.184m12.039-.06c0,.013,0,.026,0,.039-.01-.04-.018-.077-.023-.107s-.017-.068-.017-.089-.005-.045-.009-.068l0-.016v-.027c0-.011,0-.028.005-.019a.017.017,0,0,1,.009.01.319.319,0,0,1,.017.064l0,.018.006.032c0,.022.006.044.007.066l0,.033Z" transform="translate(-48.767 -26.739)" fill="#171717"/>
    <path id="Path_29210" data-name="Path 29210" d="M157.266,157.7a.321.321,0,0,1-.137-.031.326.326,0,0,1-.153-.432c.1-.2,2.4-5.038,6.657-6.264a.32.32,0,0,1,.4.223.324.324,0,0,1-.221.4c-3.977,1.144-6.23,5.869-6.253,5.917a.321.321,0,0,1-.29.185" transform="translate(-56.278 -53.074)" fill="#0e0e0e"/>
    <path id="Path_29211" data-name="Path 29211" d="M165.782,158.059a.32.32,0,0,1-.219-.088,37.077,37.077,0,0,1-3.265-3.584.327.327,0,0,1,.055-.455.319.319,0,0,1,.45.055A36.223,36.223,0,0,0,166,157.5a.326.326,0,0,1,.015.458.317.317,0,0,1-.234.1" transform="translate(-58.173 -54.095)" fill="#0e0e0e"/>
    <path id="Path_29212" data-name="Path 29212" d="M167.97,155.072a.457.457,0,1,1-.457-.462.46.46,0,0,1,.457.462" transform="translate(-59.903 -54.358)" fill="#0e0e0e"/>
    <path id="Path_29213" data-name="Path 29213" d="M172.143,99.939a.316.316,0,0,1-.189-.062.327.327,0,0,1-.071-.453l4.736-6.581a.318.318,0,0,1,.448-.071.326.326,0,0,1,.071.453L172.4,99.805a.319.319,0,0,1-.26.134" transform="translate(-61.613 -32.595)" fill="#0e0e0e"/>
    <path id="Path_29214" data-name="Path 29214" d="M178.779,96.757h-1.338a.324.324,0,0,1,0-.648h1.338a.324.324,0,0,1,0,.648" transform="translate(-63.512 -33.79)" fill="#0e0e0e"/>
    <path id="Path_29215" data-name="Path 29215" d="M152.36,127.606a.253.253,0,0,0,.2-.1.257.257,0,0,0-.048-.359,9.354,9.354,0,0,0-3.977-1.716.256.256,0,0,0-.063.508,9.007,9.007,0,0,1,3.733,1.615.248.248,0,0,0,.153.053" transform="translate(-53.161 -44.098)" fill="#0e0e0e"/>
    <path id="Path_29216" data-name="Path 29216" d="M153.367,127.094a.244.244,0,0,0,.083-.014.256.256,0,0,0,.157-.326,6.234,6.234,0,0,0-1.367-2.046.252.252,0,0,0-.359.006.258.258,0,0,0,.006.362,5.812,5.812,0,0,1,1.242,1.845.253.253,0,0,0,.239.172" transform="translate(-54.436 -43.82)" fill="#0e0e0e"/>
    <path id="Path_29217" data-name="Path 29217" d="M169.078,157.3c.264.3,1.076,1.332,1.186,1.432,1.9,1.723,4.705,1.646,5.927,2.762,0,0,8.644,4.931,6.943,6.024-.936.6-2.589.044-3.884-.577.06.1.119.193.176.279,1.2,1.807,4.677,3.472,3.772,5.01s-3.114-.146-3.114-.146-.457,1.719-3.021,1.129a2.1,2.1,0,0,1-2.373,1.024,2.348,2.348,0,0,1-2.794.777c-1.371-.67-4.439-4.47-8.533-11.094a11.986,11.986,0,0,1,5.715-6.622" transform="translate(-58.579 -55.304)" fill="#fd9680"/>
    <path id="Path_29218" data-name="Path 29218" d="M354.78,413.3c0,2.865-17.913,5.187-40.008,5.187s-40.008-2.323-40.008-5.187,17.912-5.187,40.008-5.187,40.008,2.323,40.008,5.187" transform="translate(-98.526 -143.484)" fill="#d8d8d6"/>
    <path id="Path_29219" data-name="Path 29219" d="M320.829,81.232l-.04,1.112-.047,1.082c-.031.72-.072,1.437-.114,2.153l-.133,2.148-.158,2.146c-.216,2.861-.5,5.72-.818,8.588-.157,1.434-.347,2.867-.541,4.305s-.407,2.878-.639,4.325c-.471,2.892-1.02,5.8-1.744,8.77-.362,1.489-.777,2.992-1.279,4.547-.255.779-.53,1.57-.852,2.386l-.124.308-.062.154-.031.077-.039.093c-.046.109-.095.217-.146.324l-.078.159-.075.145q-.065.123-.135.243c-.047.08-.094.16-.143.238l-.12.186c-.176.265-.307.435-.457.624-.121.149-.262.314-.366.425l-.166.178-.15.152a11.434,11.434,0,0,1-.958.849c-.27.215-.507.388-.731.547-.448.316-.843.569-1.225.805s-.743.447-1.1.65c-.712.4-1.4.764-2.072,1.112s-1.344.673-2.008.991-1.325.626-1.986.923c-2.639,1.194-5.267,2.278-7.914,3.3-1.322.512-2.652,1-3.985,1.468-.666.24-1.336.467-2.008.693-.335.113-.672.226-1.01.333s-.671.216-1.03.326a5.885,5.885,0,0,1-7.353-3.974,5.988,5.988,0,0,1,2.8-6.954l.089-.048c.284-.158.6-.321.9-.482s.607-.322.911-.48c.609-.32,1.218-.641,1.831-.953,1.221-.631,2.442-1.261,3.664-1.879,2.439-1.242,4.877-2.47,7.251-3.7l1.76-.924c.579-.307,1.148-.62,1.7-.924s1.092-.613,1.584-.911c.245-.147.482-.292.691-.427s.4-.263.515-.353a1.077,1.077,0,0,0,.1-.083,1.245,1.245,0,0,0-.175.156l-.058.058-.078.082c-.043.048-.13.145-.194.228-.1.119-.173.22-.3.411l-.084.132c-.038.06-.074.121-.11.182s-.07.123-.1.186l-.06.115-.064.13c-.042.087-.081.175-.118.264-.026.064-.02.049-.019.044l0-.012.017-.045.035-.091.069-.181c.185-.492.37-1.026.545-1.583.353-1.119.669-2.328.97-3.566s.57-2.518.826-3.815.494-2.609.72-3.934c.461-2.647.848-5.34,1.217-8.047s.7-5.432,1.019-8.162l.458-4.1.427-4.055.012-.112a6.559,6.559,0,0,1,13.08.942" transform="translate(-99.95 -26.143)" fill="#171717"/>
    <path id="Path_29220" data-name="Path 29220" d="M289.5,155.712a.5.5,0,1,1-.5-.5.5.5,0,0,1,.5.5" transform="translate(-103.452 -54.569)" fill="#0e0e0e"/>
    <path id="Path_29221" data-name="Path 29221" d="M294.436,164.009a.406.406,0,0,1-.106-.015.391.391,0,0,1-.264-.482c1.648-5.809-3.557-10.925-3.611-10.976a.392.392,0,0,1-.012-.55.381.381,0,0,1,.544-.012,15.944,15.944,0,0,1,2.577,3.486,10.85,10.85,0,0,1,1.242,8.267.387.387,0,0,1-.37.282" transform="translate(-104.11 -53.393)" fill="#0e0e0e"/>
    <path id="Path_29222" data-name="Path 29222" d="M287.574,159.716a.384.384,0,0,1-.35-.226.391.391,0,0,1,.189-.516l4.318-2.011a.383.383,0,0,1,.511.191.391.391,0,0,1-.189.516l-4.318,2.011a.387.387,0,0,1-.161.036" transform="translate(-102.981 -55.173)" fill="#0e0e0e"/>
    <path id="Path_29223" data-name="Path 29223" d="M280.777,163.428s-3.73,4.715-7.44,4.787c-4.161.082-7.545-8.236-7.512-10.813.041-3.224,5.146-3.732,5.146-3.732s-2.494-5-1.082-5.691c1.839-.9,4.687,3.838,7.825,4.932a5.434,5.434,0,0,1,2.6,2.111,7.386,7.386,0,0,1,.467,8.4" transform="translate(-95.32 -51.987)" fill="#b14635"/>
    <path id="Path_29224" data-name="Path 29224" d="M278.45,170.02a.349.349,0,0,0-.32-.117,11.79,11.79,0,0,0-4.727,1.844.358.358,0,0,0-.052.5.352.352,0,0,0,.5.052,11.291,11.291,0,0,1,4.393-1.694.357.357,0,0,0,.21-.585" transform="translate(-97.991 -59.733)" fill="#882316"/>
    <path id="Path_29225" data-name="Path 29225" d="M277.026,165.148a.348.348,0,0,0-.293-.121,9.712,9.712,0,0,0-5.1,2.244.358.358,0,0,0-.037.5h0a.35.35,0,0,0,.495.036,9.17,9.17,0,0,1,4.7-2.074.357.357,0,0,0,.236-.588" transform="translate(-97.358 -58.02)" fill="#882316"/>
    <path id="Path_29226" data-name="Path 29226" d="M274.575,160.751a.351.351,0,0,0-.29-.121,8.659,8.659,0,0,0-4.618,2.061.358.358,0,0,0-.04.5.344.344,0,0,0,.5.04,8.108,8.108,0,0,1,4.213-1.893.355.355,0,0,0,.325-.381.359.359,0,0,0-.086-.207" transform="translate(-96.653 -56.474)" fill="#882316"/>
    <path id="Path_29227" data-name="Path 29227" d="M283.986,163.8a.35.35,0,0,0-.4-.093,5.537,5.537,0,0,1-4.514-.316.35.35,0,0,0-.48.133.357.357,0,0,0,.131.484,6.146,6.146,0,0,0,5.14.351.357.357,0,0,0,.185-.466.351.351,0,0,0-.058-.094" transform="translate(-99.881 -57.429)" fill="#882316"/>
    <path id="Path_29228" data-name="Path 29228" d="M276.44,160.317a9.589,9.589,0,0,0-2.215-1.9.349.349,0,0,0-.483.118.358.358,0,0,0,.116.489c4.7,2.91,5,9.544,5.008,9.611a.352.352,0,1,0,.7-.026,14.83,14.83,0,0,0-3.129-8.293" transform="translate(-98.14 -55.679)" fill="#882316"/>
    <path id="Path_29229" data-name="Path 29229" d="M320.7,141.99a.381.381,0,0,1-.254-.1c-1.745-1.551-5.045-1.924-5.079-1.928a.389.389,0,0,1,.082-.774c.145.016,3.575.4,5.505,2.117a.393.393,0,0,1,.035.549.383.383,0,0,1-.289.132" transform="translate(-112.963 -48.936)" fill="#0e0e0e"/>
    <path id="Path_29230" data-name="Path 29230" d="M316.913,139.681a.382.382,0,0,1-.32-.173.391.391,0,0,1,.106-.539,5.9,5.9,0,0,1,3.679-.5.389.389,0,0,1-.131.767,5.243,5.243,0,0,0-3.12.381.385.385,0,0,1-.214.065" transform="translate(-113.501 -48.649)" fill="#0e0e0e"/>
    <path id="Path_29231" data-name="Path 29231" d="M359.163,62.761s23.531-6.076,29.943,11.937,10.97,61.028-12.393,62.533c-25.484,1.642-17.55-74.47-17.55-74.47" transform="translate(-128.371 -21.719)" fill="#2c2c2c"/>
    <path id="Path_29232" data-name="Path 29232" d="M381.684,63.732l1.579-.318a13.432,13.432,0,0,0-1.434-3.721c-1.461-2.533-3.534-3.863-5.994-3.846a5.616,5.616,0,0,0-4.289,1.672,6.245,6.245,0,0,0-1.454,4.259l1.607-.106a4.628,4.628,0,0,1,1.035-3.053,4.1,4.1,0,0,1,3.112-1.144c4.535-.03,5.825,6.194,5.838,6.257" transform="translate(-132.707 -19.635)" fill="#2c2c2c"/>
    <path id="Path_29233" data-name="Path 29233" d="M364.9,386.644l-.818,6.567H355.8l-.482-6.912Z" transform="translate(-127.412 -135.816)" fill="#b14635"/>
    <path id="Path_29234" data-name="Path 29234" d="M330.535,385.064l-1.006,7.632h-8.285l.319-7.859Z" transform="translate(-115.192 -135.302)" fill="#b14635"/>
    <path id="Path_29235" data-name="Path 29235" d="M289.193,408.924H320.53a4.465,4.465,0,0,0,.412-1.759c.2-2.68-.649-6.956-1.063-9.653-.051-.314-.094-.609-.127-.875a9.394,9.394,0,0,1-.093-1.1c0-2.2-1.927-1.824-1.927-1.824-3.171,3.144-6.762-1.57-8.859-.024,0,0-.9.654-3.391,2.917s-6.719,3.756-10.32,5.28c-4.65,1.965-5.969,3.928-6.226,5.28a2.5,2.5,0,0,0,.257,1.759" transform="translate(-103.589 -138.301)" fill="#2c2c2c"/>
    <path id="Path_29236" data-name="Path 29236" d="M289.193,416.405H320.53a4.465,4.465,0,0,0,.412-1.759H288.936a2.5,2.5,0,0,0,.257,1.759" transform="translate(-103.589 -145.782)" fill="#171717"/>
    <path id="Path_29237" data-name="Path 29237" d="M332.394,410.7h.931a7,7,0,0,1-1.684-5.073,8.961,8.961,0,0,1,3.3-6.34c-.051-.314-.094-.609-.127-.875a9.725,9.725,0,0,0-3.919,7.177,7.742,7.742,0,0,0,1.5,5.11" transform="translate(-118.649 -140.074)" fill="#171717"/>
    <path id="Path_29238" data-name="Path 29238" d="M314.208,400.41a.523.523,0,0,0,.124-1.029l-1.958-.491a.515.515,0,0,0-.625.381.522.522,0,0,0,.377.632l1.957.492a.521.521,0,0,0,.125.016" transform="translate(-111.782 -140.237)" fill="#fff"/>
    <path id="Path_29239" data-name="Path 29239" d="M317.241,397.869a.523.523,0,0,0,.124-1.029l-1.958-.491a.515.515,0,0,0-.625.381.522.522,0,0,0,.377.632l1.958.491a.514.514,0,0,0,.124.016" transform="translate(-112.87 -139.344)" fill="#fff"/>
    <path id="Path_29240" data-name="Path 29240" d="M311.156,402.184a.523.523,0,0,0,.124-1.029l-1.958-.491a.515.515,0,0,0-.625.381.522.522,0,0,0,.377.632l1.957.492a.524.524,0,0,0,.125.016" transform="translate(-110.688 -140.861)" fill="#fff"/>
    <path id="Path_29241" data-name="Path 29241" d="M308.1,403.89a.523.523,0,0,0,.124-1.029l-1.958-.491a.516.516,0,0,0-.625.381.523.523,0,0,0,.377.632l1.958.492a.521.521,0,0,0,.125.016" transform="translate(-109.593 -141.461)" fill="#fff"/>
    <path id="Path_29242" data-name="Path 29242" d="M304.777,405.467a.523.523,0,0,0,.124-1.029l-1.958-.491a.515.515,0,0,0-.625.381.523.523,0,0,0,.377.632l1.958.491a.526.526,0,0,0,.125.016" transform="translate(-108.4 -142.015)" fill="#fff"/>
    <path id="Path_29243" data-name="Path 29243" d="M301.168,406.812a.523.523,0,0,0,.124-1.029l-1.958-.491a.515.515,0,0,0-.625.381.522.522,0,0,0,.377.632l1.957.491a.526.526,0,0,0,.125.016" transform="translate(-107.106 -142.488)" fill="#fff"/>
    <path id="Path_29244" data-name="Path 29244" d="M365.4,199.944c-.082.33-.17.654-.266.968,0,.012-.007.025-.01.037q-.2.641-.432,1.229c-1.4,3.474-12.252,3.984-22.932,2.776-8.283-.936-16.465-2.908-20.058-5.334-3.374-2.276,3.811-23.284,3.811-23.284l40.518,8.6s.912,8.736-.631,15.011" transform="translate(-115.034 -61.997)" fill="#2c2c2c"/>
    <path id="Path_29245" data-name="Path 29245" d="M338.517,214.5l-6.638,57.922c1.528,9.746-2.587,49.654-2.587,49.654l-11.93-.365L313.9,268.848c.08-15.3,1.673-36.461,4.023-59.542.037-.353.072-.707.11-1.061q.179-1.766.368-3.55c.033-.316.066-.633.1-.951l3.9,1.816.956.446,15.32,7.133Z" transform="translate(-112.558 -71.632)" fill="#2c2c2c"/>
    <path id="Path_29246" data-name="Path 29246" d="M334.658,326.345a.491.491,0,0,1-.062,0,.5.5,0,0,1-.432-.56c4.244-34.86,1.492-49.188,1.464-49.33a.51.51,0,0,1-.006-.165l7.159-55.241a.5.5,0,1,1,.986.13l-7.149,55.162c.225,1.248,2.63,15.912-1.468,49.567a.5.5,0,0,1-.493.441" transform="translate(-119.824 -77.561)" fill="#171717"/>
    <path id="Path_29247" data-name="Path 29247" d="M329.91,192.982a20.631,20.631,0,0,1-4.306,9.031,11.572,11.572,0,0,1-2.28,1.969,9.584,9.584,0,0,1-2.114,1.037,8.6,8.6,0,0,1-1.039.3c.037-.353.071-.707.109-1.062.167-.043.334-.092.5-.147a8.679,8.679,0,0,0,2.01-.968,10.245,10.245,0,0,0,1.861-1.57c3.273-3.457,4.274-8.708,4.285-8.769a.5.5,0,0,1,.58-.4.5.5,0,0,1,.4.586" transform="translate(-114.807 -67.64)" fill="#171717"/>
    <path id="Path_29248" data-name="Path 29248" d="M348.125,205.224a.411.411,0,0,0,.391.424h0a.409.409,0,0,0,.433-.383c.073-1.515.161-3.066.258-4.615.017-.273.033-.545.052-.818.326-5.062.74-10.032,1.052-13.542.026-.283.049-.559.074-.823.069-.77.132-1.453.186-2.031-.275-.043-.549-.088-.82-.134-.054.578-.117,1.268-.187,2.046-.025.264-.049.539-.074.823-.309,3.478-.72,8.4-1.045,13.437-.019.278-.036.556-.055.834-.1,1.605-.191,3.215-.267,4.783" transform="translate(-124.831 -64.446)" fill="#171717"/>
    <path id="Path_29249" data-name="Path 29249" d="M346.155,200.152a10.8,10.8,0,0,0,1.448.56,8.387,8.387,0,0,0,.818.209,5.872,5.872,0,0,0,.784.1,2.83,2.83,0,0,0,1.39-.22,1.711,1.711,0,0,0,.943-1.279c.3-1.561.933-8.011,1.359-12.572q.04-.42.077-.82c.067-.729.128-1.393.179-1.957-.273-.034-.549-.067-.824-.1-.052.567-.112,1.238-.182,1.978q-.037.4-.076.82c-.427,4.55-1.056,10.989-1.349,12.5a.9.9,0,0,1-.5.707,2.892,2.892,0,0,1-1.75.023c-.279-.061-.557-.14-.816-.224a9.7,9.7,0,0,1-1.137-.451.418.418,0,0,0-.554.182.4.4,0,0,0,.189.542" transform="translate(-124.042 -64.717)" fill="#171717"/>
    <path id="Path_29250" data-name="Path 29250" d="M377.688,199.8s-.287,3.259-.745,8.253c-.029.311-.059.629-.087.956a.025.025,0,0,0,0,.012.156.156,0,0,1,0,.037c-.03.326-.06.658-.09,1-1.156,12.581-3.141,33.474-4.443,43.521,0,0,.194,18.908-.5,33.5-.641,13.557-5.265,29.821-5.918,33.84H353.6l-.121-1.785V206.41a119.879,119.879,0,0,1,11.469-4.711c.321-.111.643-.219.967-.326.613-.2,1.228-.395,1.839-.576q.488-.145.972-.279c3.659-1.013,7.057-1.515,8.963-.715" transform="translate(-126.751 -70.108)" fill="#2c2c2c"/>
    <path id="Path_29251" data-name="Path 29251" d="M370.469,326.719a.526.526,0,0,1-.095-.009.5.5,0,0,1-.394-.589c.034-.177,3.4-17.818,4.857-27.81,1.452-9.96.736-37.979.729-38.261a.546.546,0,0,1,0-.072c1.09-9.372,3.321-41.729,3.343-42.054a.5.5,0,1,1,.992.069c-.022.326-2.249,32.624-3.344,42.066.029,1.165.7,28.517-.74,38.4-1.46,10.014-4.831,27.676-4.865,27.854a.5.5,0,0,1-.487.407" transform="translate(-132.665 -76.454)" fill="#171717"/>
    <path id="Path_29252" data-name="Path 29252" d="M350.676,406.336c0,.075,0,.149,0,.22.008.335.022.637.036.895.033.569.074.919.074.919h18.666a10.518,10.518,0,0,0,.022-1.814,9.472,9.472,0,0,0-3.334-6.986c-3.528-2.758-2.166-2.183-2.89-3.44-.081-.139-.716-2.276-.784-2.423-.607-1.305-1.166-1.923-4.51-1.923-4.436,0-4.826,2.175-5.3,3.322a21.571,21.571,0,0,0-.738,2.663c-.112.477-.224.987-.334,1.5-.273,1.3-.529,2.658-.7,3.741a19.874,19.874,0,0,0-.209,3.32" transform="translate(-125.745 -137.745)" fill="#2c2c2c"/>
    <path id="Path_29253" data-name="Path 29253" d="M350.677,409.572c0,.075,0,.149,0,.22.008.335.022.637.036.895a5.256,5.256,0,0,0,1.939-2.541c1.155-3.18-.621-7-.7-7.158l-.037.018c-.112.477-.224.987-.334,1.5a8.672,8.672,0,0,1,.232,5.329,4.388,4.388,0,0,1-1.144,1.733" transform="translate(-125.747 -140.98)" fill="#171717"/>
    <path id="Path_29254" data-name="Path 29254" d="M350.683,414.567c.025,1.074.11,1.813.11,1.813h18.666a10.471,10.471,0,0,0,.021-1.813Z" transform="translate(-125.749 -145.754)" fill="#171717"/>
    <path id="Path_29255" data-name="Path 29255" d="M360.775,400.1a.524.524,0,0,0,.133-.017,9.15,9.15,0,0,1,4.328-.09.531.531,0,0,0,.655-.375.539.539,0,0,0-.371-.662,10.114,10.114,0,0,0-4.878.086.539.539,0,0,0,.133,1.059" transform="translate(-129.177 -140.176)" fill="#fff"/>
    <path id="Path_29256" data-name="Path 29256" d="M360.321,396.963a.524.524,0,0,0,.133-.018,9.141,9.141,0,0,1,4.328-.09.531.531,0,0,0,.655-.375.539.539,0,0,0-.371-.662,10.114,10.114,0,0,0-4.878.086.539.539,0,0,0,.133,1.059" transform="translate(-129.014 -139.074)" fill="#fff"/>
    <path id="Path_29257" data-name="Path 29257" d="M362.019,402.728a.525.525,0,0,0,.133-.017,9.231,9.231,0,0,1,4.329-.09.532.532,0,0,0,.654-.377.538.538,0,0,0-.371-.661,10.113,10.113,0,0,0-4.878.086.539.539,0,0,0,.133,1.059" transform="translate(-129.623 -141.101)" fill="#fff"/>
    <path id="Path_29258" data-name="Path 29258" d="M363.481,405.718a.532.532,0,0,0,.134-.018,9.217,9.217,0,0,1,4.328-.089.532.532,0,0,0,.654-.377.538.538,0,0,0-.371-.661,10.115,10.115,0,0,0-4.878.086.539.539,0,0,0,.133,1.059" transform="translate(-130.147 -142.152)" fill="#fff"/>
    <path id="Path_29259" data-name="Path 29259" d="M382.589,208.435a.022.022,0,0,0,0,.011.153.153,0,0,1,0,.037q-.045.489-.09,1a7.913,7.913,0,0,1-4.127-.374,13.3,13.3,0,0,1-5.993-5.134,24.863,24.863,0,0,1-1.691-2.85,24.258,24.258,0,0,1-1.185-2.684.5.5,0,0,1,.3-.642.493.493,0,0,1,.635.3,23.687,23.687,0,0,0,1.215,2.7,24.076,24.076,0,0,0,1.577,2.626,12.274,12.274,0,0,0,5.482,4.739,7,7,0,0,0,3.882.274" transform="translate(-132.485 -69.531)" fill="#171717"/>
    <path id="Path_29260" data-name="Path 29260" d="M371.707,115.624q-.1,1.6-.263,3.206c-.537,5.361-2.537,23.3-4.356,28.325a44.644,44.644,0,0,1-21.5,4.232q-2.06-.088-4.073-.335-1.779-.219-3.5-.554c-7.493-1.451-14.053-4.486-18.125-8.33,1.908-7.531,4.127-21.179,4.956-27.034.156-1.092.293-2.153.417-3.192q.183-1.516.324-2.96c.107-1.1.2-2.166.275-3.2q.123-1.67.2-3.229.077-1.667.106-3.218c.269-14.091-2.29-21.041-1.623-24.419,1-5.084,5.653-5.023,9.884-6.625.247-.093.494-.191.738-.3.165-.073.326-.148.487-.224a9.491,9.491,0,0,0,3.87-3.271H351.95a17.385,17.385,0,0,0,2.816,1.761c.168.089.342.175.528.263.446.212.936.426,1.473.632a23.267,23.267,0,0,0,4.68,1.244c5.575.9,8.784,6.886,9.39,16.605.3,4.908.63,9.533.846,13.992.015.3.029.591.042.886a141.721,141.721,0,0,1-.018,15.744" transform="translate(-114.706 -22.676)" fill="#fff"/>
    <path id="Path_29261" data-name="Path 29261" d="M358.479,36.674s3.876-10.808,2.579-14.651A12.3,12.3,0,0,0,348.435,14.1c-6.642.632-8.662,5.873-8.71,10.275s18.754,12.3,18.754,12.3" transform="translate(-121.819 -4.936)" fill="#2c2c2c"/>
    <path id="Path_29262" data-name="Path 29262" d="M343.725,38.427s-1.185-3.38-3.91-2.506-2.517,10.13,2.709,9.66Z" transform="translate(-121.232 -12.578)" fill="#882316"/>
    <path id="Path_29263" data-name="Path 29263" d="M361.893,57.436s.745,1.11-4.235,2.953a10.859,10.859,0,0,1-7.638-.305,9.976,9.976,0,0,1-1.09-.607,14.294,14.294,0,0,0-.6-7.047c-.037-.09-.059-.136-.059-.136l12.738-7.763Z" transform="translate(-124.884 -15.656)" fill="#b14635"/>
    <path id="Path_29264" data-name="Path 29264" d="M359.581,52.89s-2.48,9.127-9.529,10.132a10.133,10.133,0,0,1-1.09-.606,14.293,14.293,0,0,0-.6-7.048Z" transform="translate(-124.917 -18.595)" fill="#2c2c2c"/>
    <path id="Path_29265" data-name="Path 29265" d="M351.824,46.025c-5.391,1.471-9.916-.591-10.773-5.292-.208-1.133-.385-2.783-.528-4.505,0-.018,0-.035-.005-.053-.03-.366-.058-.737-.087-1.106q-.031-.4-.057-.8c-.214-3.075-.323-5.868-.323-5.868.25-7.692,7.528-11.074,13.721-8.606s4.542,11.928,4.842,16.468a9.076,9.076,0,0,1-6.791,9.761" transform="translate(-121.937 -6.68)" fill="#b14635"/>
    <path id="Path_29266" data-name="Path 29266" d="M358.494,27.515a2.776,2.776,0,0,1-.062.278s-1.208.557-1.614,3.059l-1.643.064a12.272,12.272,0,0,1-.405-5.392,2.952,2.952,0,0,0-.026-.8c-.55-3.03-6-5.375-9.6-4.379a7.217,7.217,0,0,0-4.861,4.825,12.7,12.7,0,0,0-.294,2.928,9.329,9.329,0,0,1,1.622-7.646c3.424-4.708,11.148-5.09,14.583-.877a9.657,9.657,0,0,1,2.3,7.937" transform="translate(-121.836 -5.856)" fill="#2c2c2c"/>
    <path id="Path_29267" data-name="Path 29267" d="M366.822,31.892a2.776,2.776,0,0,1-.062.278s-1.208.557-1.614,3.059l-1.643.064A12.272,12.272,0,0,1,363.1,29.9a2.953,2.953,0,0,0-.026-.8Z" transform="translate(-130.163 -10.232)" fill="#882316"/>
    <path id="Path_29268" data-name="Path 29268" d="M352.769,23.153s-2.845-.865-4.135-.225-3.164,1.493-4.7.553-2.955,2.336-2.955,2.336,1.4-5.74,6.054-4.952,4.6.352,5.738,2.288" transform="translate(-122.268 -7.31)" fill="#2c2c2c"/>
    <path id="Path_29269" data-name="Path 29269" d="M359.454,18.453s2.886-3.046,2.128-4.3a1.475,1.475,0,0,0-2.1-.385s.575-2.437-.711-2.756a5.409,5.409,0,0,0-2.7.178,1.157,1.157,0,0,0-.937-1.765,6.261,6.261,0,0,0-3.28.407s-1.258-1.908-2.981-1.552-2.005,1.479-2.005,1.479-2.8-1.519-4.532-.66-.436,2.436-.436,2.436-2.431-1.7-3.642-.5.273,2.65.273,2.65a3,3,0,0,0-1.341,1.6c-.447,1.372,2.085,3.563,2.085,3.563Z" transform="translate(-120.891 -2.895)" fill="#2c2c2c"/>
    <path id="Path_29270" data-name="Path 29270" d="M366.593,35.127s1.382-2.666,4.044-1.614,1.855,10.274-3.329,9.46Z" transform="translate(-131.454 -11.696)" fill="#b14635"/>
    <path id="Path_29271" data-name="Path 29271" d="M360.518,43.089a.389.389,0,0,1-.539-.13.4.4,0,0,1,.129-.545c3.471-2.157,3.49-6.388,3.49-6.43a.392.392,0,1,1,.784,0,8.78,8.78,0,0,1-3.863,7.109" transform="translate(-129.061 -12.511)" fill="#d8d8d6"/>
    <path id="Path_29272" data-name="Path 29272" d="M357.042,53.133a.4.4,0,0,1-.021-.791,11.565,11.565,0,0,0,7.069-3.865.39.39,0,0,1,.552-.054.4.4,0,0,1,.055.557,12.152,12.152,0,0,1-7.605,4.152.411.411,0,0,1-.049,0" transform="translate(-127.893 -16.993)" fill="#d8d8d6"/>
    <path id="Path_29273" data-name="Path 29273" d="M343.848,41.451a1.975,1.975,0,0,1,1.927-.567,12.9,12.9,0,0,1,2.477,1.949c1.825,1.526,6.245.248,6.245.248s1.879,5.416.086,8.083-6.811,3.418-8.951,2.707a6.026,6.026,0,0,1-4.336-5.5l-.314-3.284a1.112,1.112,0,0,1,.237-.8,25.613,25.613,0,0,1,2.629-2.836" transform="translate(-122.268 -14.349)" fill="#fff"/>
    <path id="Path_29274" data-name="Path 29274" d="M347.471,49.706a10.569,10.569,0,0,0,1.891-.294A14.6,14.6,0,0,0,352.933,48a.251.251,0,0,0,.089-.341.245.245,0,0,0-.337-.09c-.06.035-5.988,3.457-9.458.329a.245.245,0,0,0-.348.02.251.251,0,0,0,.02.352,6.074,6.074,0,0,0,4.573,1.434" transform="translate(-122.928 -16.713)" fill="#d8d8d6"/>
    <path id="Path_29275" data-name="Path 29275" d="M347.664,53.087a10.522,10.522,0,0,0,1.891-.294,14.617,14.617,0,0,0,3.571-1.409.251.251,0,0,0,.089-.341.245.245,0,0,0-.337-.09c-.06.035-5.988,3.457-9.458.329a.245.245,0,0,0-.348.02.251.251,0,0,0,.02.352,6.077,6.077,0,0,0,4.573,1.434" transform="translate(-122.997 -17.902)" fill="#d8d8d6"/>
    <path id="Path_29276" data-name="Path 29276" d="M347.824,55.853a10.509,10.509,0,0,0,1.891-.294,14.6,14.6,0,0,0,3.571-1.41.251.251,0,0,0,.089-.341.245.245,0,0,0-.337-.09c-.06.035-5.988,3.457-9.458.329a.244.244,0,0,0-.348.02.251.251,0,0,0,.02.352,6.076,6.076,0,0,0,4.573,1.434" transform="translate(-123.054 -18.875)" fill="#d8d8d6"/>
    <path id="Path_29277" data-name="Path 29277" d="M347.118,129.795l2.138,5.218v0l.96,2.344,2.713,6.625,1.31-2.558.464-.906,1.051-2.051.463-.906,1.052-2.051.463-.906,1.051-2.051v0l.464-.9.988-1.928-.021-.209-.154-1.529-.35-3.468-.153-1.531-.35-3.467-.154-1.53-.35-3.467-.154-1.53-.349-3.468-.154-1.53-.35-3.467-.154-1.53L357.2,99.53,357.042,98l-.35-3.466L356.539,93l-.35-3.467-.153-1.53-.361-3.584-2.62-.1-.077.6-.158,1.213-.359,2.751-.158,1.213-.359,2.751-.158,1.215-.359,2.751-.159,1.213-.359,2.751-.159,1.214-.359,2.753-.159,1.213-.359,2.751-.159,1.213-.359,2.751-.159,1.215-.359,2.751-.158,1.213-.359,2.751-.158,1.215-.359,2.751-.158,1.213-.359,2.751-.158,1.215Z" transform="translate(-124.471 -29.645)" fill="#4e52ac"/>
    <path id="Path_29278" data-name="Path 29278" d="M371.707,117.064q-.1,1.6-.263,3.206c-.537,5.361-2.537,23.3-4.356,28.325a44.644,44.644,0,0,1-21.5,4.232l-3.82-3.965-3.755,3.076c-7.493-1.451-14.053-4.486-18.125-8.33.691-2.729,1.423-6.26,2.116-9.933.165-.882.33-1.773.49-2.662,1.015-5.626,1.893-11.214,2.35-14.439.156-1.092.293-2.153.417-3.192q.183-1.516.324-2.96c.107-1.1.2-2.166.275-3.2q.123-1.67.2-3.229.077-1.667.106-3.218c.269-14.091-2.29-21.041-1.623-24.419,1-5.084,5.653-5.023,9.884-6.625.071.034.141.069.212.105l9.317,41.315,12.587-42.5s.082-.021.233-.055a23.267,23.267,0,0,0,4.68,1.244c5.575.9,8.784,6.886,9.39,16.605.3,4.908.63,9.533.846,13.992.015.3.029.591.042.886a141.721,141.721,0,0,1-.018,15.744" transform="translate(-114.706 -24.116)" fill="#171717"/>
    <path id="Path_29279" data-name="Path 29279" d="M334.169,162.616a79.157,79.157,0,0,1-10.985,3.352c.165-.881.33-1.773.491-2.662,4.593-1.149,9.919-2.865,9.919-2.865Z" transform="translate(-115.888 -56.409)" fill="#0e0e0e"/>
    <path id="Path_29280" data-name="Path 29280" d="M373.869,163.771s9.059,5.478,13.206,7.039l-1.257,2.231a93.826,93.826,0,0,1-13-7.288Z" transform="translate(-133.685 -57.579)" fill="#0e0e0e"/>
    <path id="Path_29281" data-name="Path 29281" d="M339.748,70.274a4.38,4.38,0,0,0-5.593,1.586l2.1,13.539,4.69,2.805-3.173,1.923,3.583,15.736,7.71,5.725Z" transform="translate(-119.822 -24.554)" fill="#0e0e0e"/>
    <path id="Path_29282" data-name="Path 29282" d="M368.168,68.2s3.412-2.2,5.779,1.073l-2.891,15.295-4.69,2.8,3.173,1.923-3.583,15.737-8.559,5.724Z" transform="translate(-128.156 -23.724)" fill="#0e0e0e"/>
    <path id="Path_29283" data-name="Path 29283" d="M353.4,182.158a.938.938,0,1,0,.854-1.026.941.941,0,0,0-.854,1.026" transform="translate(-126.723 -63.682)" fill="#0e0e0e"/>
    <path id="Path_29284" data-name="Path 29284" d="M354,171.323a.938.938,0,1,0,.854-1.026.941.941,0,0,0-.854,1.026" transform="translate(-126.938 -59.872)" fill="#0e0e0e"/>
    <path id="Path_29285" data-name="Path 29285" d="M354.6,160.487a.938.938,0,1,0,.855-1.026.941.941,0,0,0-.855,1.026" transform="translate(-127.153 -56.062)" fill="#0e0e0e"/>
    <path id="Path_29286" data-name="Path 29286" d="M355.2,149.651a.938.938,0,1,0,.854-1.026.942.942,0,0,0-.854,1.026" transform="translate(-127.367 -52.253)" fill="#0e0e0e"/>
    <path id="Path_29287" data-name="Path 29287" d="M355.8,138.815a.938.938,0,1,0,.854-1.026.942.942,0,0,0-.854,1.026" transform="translate(-127.582 -48.443)" fill="#0e0e0e"/>
    <path id="Path_29288" data-name="Path 29288" d="M365.647,61.124s1.875.57,2.89,4.844c-1.3,3.889-4.962,7.16-10.111,8.123V66.447a13.317,13.317,0,0,0,7.221-5.323" transform="translate(-128.525 -21.49)" fill="#fff"/>
    <path id="Path_29289" data-name="Path 29289" d="M347.2,62.768s-3.045.753-4.327,5.02c3.326,4.091,5.1,5.63,9.975,6.881V67.024s-2.971-.082-5.648-4.256" transform="translate(-122.949 -22.068)" fill="#fff"/>
    <path id="Path_29290" data-name="Path 29290" d="M360.049,77.021l-3.5,5.253-3.35-5.253,3.35-4.387Z" transform="translate(-126.652 -25.537)" fill="#4e52ac"/>
    <path id="Path_29291" data-name="Path 29291" d="M347.214,82.187a.4.4,0,0,1-.246-.084.413.413,0,0,1-.077-.575l7.045-9.364a.4.4,0,0,1,.629-.021l6.994,8.09a.414.414,0,0,1-.038.579.4.4,0,0,1-.573-.039l-6.666-7.711-6.745,8.964a.4.4,0,0,1-.323.162" transform="translate(-124.36 -25.315)" fill="#d8d8d6"/>
    <path id="Path_29292" data-name="Path 29292" d="M358.2,71.855h0a.409.409,0,0,1-.4-.413l.012-1.783a.409.409,0,0,1,.406-.408h0a.408.408,0,0,1,.4.414l-.012,1.782a.409.409,0,0,1-.406.408" transform="translate(-128.298 -24.348)" fill="#d8d8d6"/>
    <path id="Path_29293" data-name="Path 29293" d="M376.575,194.065c.584.672,1.2,1.32,1.8,1.972,1.205,1.3,2.435,2.58,3.738,3.784a37.151,37.151,0,0,0,3.584,2.963c.137-.289.241-.519.3-.672.625-1.6,2.664-5.779,3.121-7.983.31-1.5-2.822-4.652-5.677-5.062-.9-.128-2.06.958-3.174,1.416a14.427,14.427,0,0,0-4.293,2.894c.2.221.4.456.6.688" transform="translate(-134.819 -66.469)" fill="#b14635"/>
    <path id="Path_29294" data-name="Path 29294" d="M410.946,115.8a12.318,12.318,0,0,0-.3-1.762l-.1-.373-.048-.18-.1-.359c-.126-.48-.266-.954-.4-1.43-.284-.948-.58-1.891-.906-2.821-.642-1.865-1.371-3.689-2.164-5.475a74.628,74.628,0,0,0-5.582-10.182c-2.1-3.223-3.873-5.629-6.648-9.606-1.092-1.565-5.235-6.875-6.6-8.23-.682-.678-.4,1.923-1.119,1.259-.363-.33.687.592.3.26l-.589-.5-.314-.262-.4-.324-4.431,5.754c-.518,4.021-1.088,8.036-1.635,12.054q.937.963,1.843,1.965c1.031,1.132,2.03,2.3,2.984,3.495s1.877,2.414,2.747,3.663a61.623,61.623,0,0,1,4.642,7.764c.665,1.338,1.285,2.692,1.83,4.067.278.687.531,1.379.775,2.074.117.348.24.7.349,1.047l.03.092a.184.184,0,0,0,0,.02,12.287,12.287,0,0,1-.343,1.574,38.562,38.562,0,0,1-1.418,4.024c-.574,1.415-1.226,2.863-1.918,4.315s-1.425,2.914-2.185,4.375c-1.524,2.92-3.143,5.844-4.818,8.748q-1.249,2.183-2.544,4.348l-1.3,2.155-.65,1.072-.637,1.037,10.864,7.708.82-1.095.793-1.071q.783-1.073,1.549-2.153,1.537-2.159,3.033-4.349c1.986-2.932,3.922-5.912,5.776-9,.928-1.543,1.842-3.11,2.722-4.725s1.741-3.267,2.563-5.006c.41-.871.812-1.762,1.194-2.694s.754-1.9,1.1-2.938a28.829,28.829,0,0,0,.926-3.444,20.039,20.039,0,0,0,.307-2.138c.033-.4.057-.813.059-1.272a13.836,13.836,0,0,0-.065-1.478m-15.815,1.737a.846.846,0,0,1,0-.185c.006-.026.01-.009.013.023a1.987,1.987,0,0,1-.009.247c0-.032-.006-.061-.008-.086" transform="translate(-136.013 -26.463)" fill="#171717"/>
    <path id="Path_29295" data-name="Path 29295" d="M379.127,176.307a.318.318,0,0,1-.182-.057.326.326,0,0,1-.082-.451c5.535-8.132,12.8-23.588,12.871-23.743a.319.319,0,0,1,.427-.154.326.326,0,0,1,.153.432c-.073.156-7.357,15.657-12.923,23.833a.32.32,0,0,1-.264.14" transform="translate(-135.833 -53.395)" fill="#0e0e0e"/>
    <path id="Path_29296" data-name="Path 29296" d="M404.493,140.369a.411.411,0,0,1-.09-.811,40.793,40.793,0,0,1,6.228-.911.41.41,0,0,1,.035.82,40.882,40.882,0,0,0-6.083.892.392.392,0,0,1-.09.01" transform="translate(-144.899 -48.746)" fill="#0e0e0e"/>
    <path id="Path_29297" data-name="Path 29297" d="M404.858,139.571a.4.4,0,0,1-.323-.161.414.414,0,0,1,.076-.576c1.345-1.04,3.233-2.2,3.313-2.252a.4.4,0,0,1,.557.137.412.412,0,0,1-.136.563c-.019.012-1.931,1.19-3.241,2.2a.4.4,0,0,1-.246.084" transform="translate(-145.029 -47.999)" fill="#0e0e0e"/>
    <path id="Path_29298" data-name="Path 29298" d="M390.177,118.045a.4.4,0,0,1-.341-.188c-.072-.112-7.227-11.284-11.85-15.3a.414.414,0,0,1-.043-.579.4.4,0,0,1,.572-.043c4.712,4.1,11.708,15.017,12,15.48a.413.413,0,0,1-.121.567.4.4,0,0,1-.22.065" transform="translate(-135.489 -35.803)" fill="#0e0e0e"/>
    <path id="Path_29299" data-name="Path 29299" d="M380.157,106.177a.392.392,0,0,1-.061,0l-3.436-.525a.41.41,0,0,1,.121-.812l3.436.525a.411.411,0,0,1-.06.816" transform="translate(-134.94 -36.857)" fill="#0e0e0e"/>
    <path id="Path_29300" data-name="Path 29300" d="M395.536,189.159a.4.4,0,0,1-.23-.072l-10.624-7.371a.413.413,0,0,1-.105-.571.4.4,0,0,1,.564-.106l10.624,7.371a.413.413,0,0,1,.1.571.4.4,0,0,1-.335.178" transform="translate(-137.877 -63.625)" fill="#0e0e0e"/>
    <path id="Path_29301" data-name="Path 29301" d="M391.513,195.167a.4.4,0,0,1-.224-.068.414.414,0,0,1-.114-.569l3.266-4.992a.4.4,0,0,1,.563-.116.413.413,0,0,1,.115.569l-3.267,4.992a.4.4,0,0,1-.338.184" transform="translate(-140.244 -66.573)" fill="#0e0e0e"/>
    <path id="Path_29302" data-name="Path 29302" d="M388.92,191.15a.933.933,0,0,0,1.264.407.954.954,0,0,0,.4-1.278.934.934,0,0,0-1.264-.407.954.954,0,0,0-.4,1.278" transform="translate(-139.422 -66.718)" fill="#0e0e0e"/>
    <path id="Path_29303" data-name="Path 29303" d="M330.906,72.956a155.6,155.6,0,0,1-.638,22.534c-1.4,13.4-3.863,24.7-3.863,24.7s-.991-19.79-1.268-31.893c-.244-10.726.453-15.087,5.77-15.337" transform="translate(-116.573 -25.65)" fill="#2c2c2c"/>
    <path id="Path_29304" data-name="Path 29304" d="M378.856,68.174s-3.271,17.735-2.594,29.774a27.145,27.145,0,0,0,15.221,23.407l.634-7.642s-8.552-10.971-8.9-17.813c-.591-11.672,3.4-23.6,3.4-23.6s-3.289-6.273-7.759-4.129" transform="translate(-134.888 -23.812)" fill="#2c2c2c"/>
  </g>
</svg>
