<svg xmlns="http://www.w3.org/2000/svg" width="120" height="375" viewBox="0 0 120 375">
  <path id="Break_Bar" data-name="Break Bar" d="M31.94,0,0,20.1V10.067C0,4.505,7.16,0,16,0ZM49.02,0,0,30.843V46.737L74.28,0ZM104,0H91.34L0,57.471V73.364l113.48-71.4A22.75,22.75,0,0,0,104,0m15.86,8.7L0,84.111V100L120,24.5V10.067a7.852,7.852,0,0,0-.14-1.372M0,110.738v15.893l120-75.5V35.235Zm0,26.64v15.893L120,77.756V61.875Zm0,26.628V179.9l120-75.5V88.5Zm0,26.628v15.893l120-75.5V115.143Zm0,26.64v15.881l120-75.5V141.77ZM0,243.9v15.893l120-75.5V168.4Zm0,26.64v15.881l120-75.5V195.038Zm0,26.628v15.893l120-75.5V221.665ZM0,323.8V339.69l120-75.5V248.293Zm0,26.64v14.5a5.749,5.749,0,0,0,.14,1.309L120,290.826V274.933Zm6.44,22.576A22.866,22.866,0,0,0,16,375H28.54L120,317.454V301.56ZM45.62,375H70.86L120,344.081V328.2Zm42.32,0H104c8.84,0,16-4.505,16-10.067v-10.1Z" fill="#ebebeb"/>
</svg>
